<?xml version="1.0" encoding="UTF-8"?>
<svg width="36px" height="20px" viewBox="0 0 36 20" version="1.1" xmlns="http://www.w3.org/2000/svg">
    <g id="Artboard" stroke="none" stroke-width="1" fill="none" fill-rule="evenodd">
        <path d="M15.6214617,1.8412929 C13.9171304,1.8412929 12.6865072,2.43326675 11.928865,3.61721445 C11.0770629,4.75031778 10.6509801,6.2865444 10.6509801,8.22589432 C10.6509801,10.4485201 11.242479,12.3660795 12.4258405,13.9713092 C13.6095655,15.5329581 14.9110813,16.6188487 16.3314785,17.2362448 C17.6093635,17.8500091 18.9585046,18.1587071 20.3785383,18.1587071 C22.0356079,18.1587071 23.289862,17.5667332 24.1420276,16.3827855 C24.9469315,15.2024696 25.3490199,13.666243 25.3490199,11.7741057 C25.3490199,9.55147993 24.757521,7.63392046 23.5741595,6.02869076 C22.3904345,4.51425459 21.1125496,3.4283639 19.7397776,2.76375522 C18.3670056,2.14999092 16.9942337,1.8412929 15.6214617,1.8412929 M18.0354463,0 C23.1480767,0 27.4081779,0.991465408 30.816477,2.97802796 C34.2724014,4.96459052 36,7.303432 36,10.0018159 C36,12.8854186 34.2247761,15.2496822 30.6746917,17.0946069 C27.1242439,19.0339568 22.9114044,20 18.0354463,20 C13.017703,20 8.75723822,19.0085346 5.25441564,17.021972 C1.75159306,15.0354095 0,12.696568 0,10.0018159 C0,7.11458144 1.79885481,4.75031778 5.39656443,2.90539314 C8.94664876,0.969674959 13.1598518,0 18.0354463,0" id="Shape" fill="#ffffff" fill-rule="nonzero"></path>
    </g>
</svg>