<?xml version="1.0" encoding="UTF-8"?>
<svg width="17px" height="8px" viewBox="0 0 17 8" version="1.1" xmlns="http://www.w3.org/2000/svg" xmlns:xlink="http://www.w3.org/1999/xlink">
    <!-- Generator: Sketch 50.2 (55047) - http://www.bohemiancoding.com/sketch -->
    <title>Artboard Copy 13</title>
    <desc>Created with Sketch.</desc>
    <defs></defs>
    <g id="Artboard-Copy-13" stroke="none" stroke-width="1" fill="none" fill-rule="evenodd">
        <path d="M10.1721094,6.82436011 C9.39187996,6.04413063 9,5.10150044 9,4 C9,2.89496911 9.39187996,1.95233892 10.1721094,1.17210944 C10.9558694,0.388349515 11.8984996,0 13,0 C14.1050309,0 15.0476611,0.388349515 15.8278906,1.17210944 C16.60812,1.95233892 17,2.89496911 17,4 C17,5.10150044 16.60812,6.04413063 15.8278906,6.82436011 C15.0476611,7.60812004 14.1050309,7.99646955 13,7.99646955 C11.8984996,7.99646955 10.9558694,7.60812004 10.1721094,6.82436011" id="Shape" fill="#000000" fill-rule="nonzero"></path>
        <path d="M1.17210944,6.82436011 C0.391879965,6.04413063 0,5.10150044 0,4 C0,2.89496911 0.391879965,1.95233892 1.17210944,1.17210944 C1.95586937,0.388349515 2.89849956,0 4,0 C5.10503089,0 6.04766108,0.388349515 6.82789056,1.17210944 C7.60812004,1.95233892 8,2.89496911 8,4 C8,5.10150044 7.60812004,6.04413063 6.82789056,6.82436011 C6.04766108,7.60812004 5.10503089,7.99646955 4,7.99646955 C2.89849956,7.99646955 1.95586937,7.60812004 1.17210944,6.82436011" id="Shape" fill="#000000" fill-rule="nonzero"></path>
    </g>
</svg>