<?xml version="1.0" encoding="UTF-8"?>
<svg width="34px" height="55px" viewBox="0 0 34 55" version="1.1" xmlns="http://www.w3.org/2000/svg" xmlns:xlink="http://www.w3.org/1999/xlink">
    <!-- Generator: Sketch 50.2 (55047) - http://www.bohemiancoding.com/sketch -->
    <title>Artboard Copy 11</title>
    <desc>Created with Sketch.</desc>
    <defs></defs>
    <g id="Artboard-Copy-11" stroke="none" stroke-width="1" fill="none" fill-rule="evenodd">
        <path d="M19.000385,36.9798537 L18.8302323,43.7117926 C18.8302323,46.0982933 18.9436674,48.0005133 19.1705377,49.4228153 C24.2271269,45.160272 26.757603,41.1289619 26.757603,37.3201591 C26.757603,35.6753497 26.4696523,34.3097652 25.9024766,33.2321314 C25.2785833,32.0934172 24.3972796,31.5262415 23.2629283,31.5262415 C21.9540613,31.5262415 20.9331451,32.0366996 20.1958168,33.0619787 C19.5108431,34.0828949 19.1138201,35.3917618 19.000385,36.9798537 M15.2526626,52.5728218 L14.9952521,43.3714872 C13.7474657,44.8505069 12.1550109,46.4124214 10.2266136,48.0572308 C8.23713589,49.8198383 6.98498653,50.9541897 6.47452842,51.4690107 C6.24765815,51.6958809 5.96407032,52.1496215 5.62376492,52.8302323 C5.05658925,53.6242782 4.65520339,54.108559 4.42833312,54.2787117 C3.97459258,54.6190171 3.52085205,54.7891698 3.06711151,54.7891698 C2.49993584,54.7891698 2.0461953,54.5928397 1.70152701,54.1958168 C1.30450404,53.7944309 1.108174,53.2577955 1.108174,52.5728218 L0,0.680610805 C0.794045939,0.226870268 1.58809188,0 2.38650071,0 C3.18054664,0 3.97459258,0.226870268 4.77300141,0.680610805 L4.08802772,30.7583729 C5.73720005,28.7732581 7.78339535,27.7785192 10.2266136,27.7785192 C11.9848582,27.7785192 13.4900552,28.4024124 14.7422045,29.6545618 L14.1444886,0.680610805 C14.9385346,0.226870268 15.7369434,0 16.5309893,0 C17.3250353,0 18.1190812,0.226870268 18.9174901,0.680610805 L18.3197742,30.7583729 C20.6495573,28.7732581 23.1756705,27.7785192 25.9024766,27.7785192 C28.1755422,27.7785192 30.1083023,28.6598229 31.6963942,30.4180675 C33.2321314,32.180675 34,34.2530476 34,36.6395483 C34,38.2320031 33.5157192,39.820095 32.5515206,41.4125497 C31.5262415,42.943924 30.5620429,44.1088156 29.6545618,44.9072244 C28.6860003,45.7012704 27.2113435,46.8356217 25.2218658,48.3146413 C23.629411,49.5057103 22.2681894,50.5571667 21.1338381,51.4690107 C20.9593225,51.5824458 20.6190171,52.0056461 20.108559,52.7429745 C19.711536,53.314513 19.2577955,53.7944309 18.7473374,54.1958168 C18.3459515,54.5928397 17.8660336,54.7891698 17.2988579,54.7891698 C16.784037,54.7891698 16.3041191,54.5622995 15.8503785,54.108559 C15.4489927,53.711536 15.2526626,53.2010779 15.2526626,52.5728218 M3.83498011,43.7117926 C3.83498011,45.6445528 3.97459258,47.6034903 4.25818042,49.592968 C8.35057103,45.6140126 10.3967663,41.5259849 10.3967663,37.3201591 C10.3967663,33.4590017 9.4282048,31.5262415 7.49980752,31.5262415 C5.22674195,31.5262415 4.06185038,33.3455665 4.00513281,36.9798537 L3.83498011,43.7117926" id="Shape" fill="#000000" fill-rule="nonzero"></path>
    </g>
</svg>