<?xml version="1.0" encoding="UTF-8"?>
<svg width="16px" height="50px" viewBox="0 0 16 50" version="1.1" xmlns="http://www.w3.org/2000/svg" xmlns:xlink="http://www.w3.org/1999/xlink">
    <!-- Generator: Sketch 50.2 (55047) - http://www.bohemiancoding.com/sketch -->
    <title>Artboard Copy 3</title>
    <desc>Created with Sketch.</desc>
    <defs></defs>
    <g id="Artboard-Copy-3" stroke="none" stroke-width="1" fill="none" fill-rule="evenodd">
        <path d="M0,16.6234457 L0,0 L2.08116545,0 C2.08116545,2.46691934 2.55733611,4.93383869 3.51300728,7.40075803 C4.55192508,10.0837822 5.70072841,12.4210386 6.95941727,14.4125274 C7.86847034,15.8421438 9.23371488,18.0297892 11.0551509,20.9721391 C12.4437045,23.2229537 13.612487,25.5834829 14.5681582,28.0504023 C15.5204995,30.5173216 16,32.984241 16,35.454485 C16,39.9561141 15.0676379,44.5441851 13.2029136,49.2186981 C12.8998959,49.7373496 12.4869927,50 11.9675338,50 C11.5313215,50 11.1417274,49.8237915 10.7954214,49.4780238 C10.535692,49.2186981 10.4058273,48.8962032 10.4058273,48.5038899 L10.4058273,48.181395 C12.2705515,43.8958707 13.2029136,39.6535674 13.2029136,35.454485 C13.2029136,33.2901124 12.5502601,30.9495312 11.2516129,28.4393909 C9.9496358,25.8860297 8.6276795,23.8513199 7.28241415,22.3352617 C5.7673257,20.5598777 4.03246618,18.6548308 2.08116545,16.6234457 L0,16.6234457" id="Shape" fill="#000000" fill-rule="nonzero"></path>
    </g>
</svg>