<?xml version="1.0" encoding="UTF-8"?>
<svg width="20px" height="56px" viewBox="0 0 20 56" version="1.1" xmlns="http://www.w3.org/2000/svg">
    <g id="Artboard-Copy-10" stroke="none" stroke-width="1" fill="none" fill-rule="evenodd">
        <path d="M4.72087912,37.2571429 L4.72087912,44.0395604 C4.72087912,46.443956 4.83516484,48.3604396 5.06373626,49.7934066 C6.95384615,48.189011 8.2989011,46.989011 9.0989011,46.1846154 C10.0131868,45.2703297 10.9274725,44.0131868 11.8461538,42.4087912 C12.7604396,40.8043956 13.2175824,39.2043956 13.2175824,37.6 C13.2175824,36 12.8747253,34.6241758 12.189011,33.4813187 C11.5032967,32.3340659 10.5846154,31.7626374 9.44175824,31.7626374 C8.06593407,31.7626374 6.92307692,32.2769231 6.00879121,33.3098901 C5.14725275,34.4527473 4.72087912,35.7714286 4.72087912,37.2571429 M1.11208791,52.967033 L0,0.685714286 C0.8,0.228571429 1.6,0 2.4,0 C3.2043956,0 4.0043956,0.228571429 4.8043956,0.685714286 L4.11868132,30.989011 C6.46593407,28.989011 9.15604396,27.9868132 12.189011,27.9868132 C14.421978,27.9868132 16.2813187,28.9010989 17.767033,30.7340659 C19.2571429,32.5626374 20,34.6549451 20,37.0021978 C20,38.4879121 19.5164835,40.0615385 18.5406593,41.7230769 C17.6263736,43.2659341 16.6549451,44.4703297 15.621978,45.3274725 C15.0505495,45.7846154 13.5912088,46.9318681 11.243956,48.7604396 C10.5582418,49.2791209 9.74065934,49.8769231 8.7956044,50.567033 C7.85494505,51.2527473 7.26593407,51.6791209 7.03736264,51.8549451 C6.63736264,52.0835165 6.26373626,52.5406593 5.92087912,53.2263736 C5.52087912,53.7978022 5.06373626,54.2857143 4.54945055,54.6857143 C4.14945055,55.0285714 3.66153846,55.2 3.09010989,55.2 C2.51428571,55.2 2.05714286,55.0021978 1.71428571,54.6021978 C1.31428571,54.1978022 1.11208791,53.6571429 1.11208791,52.967033" id="Shape" fill="#ffffff" fill-rule="nonzero"></path>
    </g>
</svg>