<?xml version="1.0" encoding="UTF-8"?>
<svg width="25px" height="20px" viewBox="0 0 25 20" version="1.1" xmlns="http://www.w3.org/2000/svg" xmlns:xlink="http://www.w3.org/1999/xlink">
    <!-- Generator: Sketch 50.2 (55047) - http://www.bohemiancoding.com/sketch -->
    <title>Half</title>
    <desc>Created with Sketch.</desc>
    <defs></defs>
    <g id="Half" stroke="none" stroke-width="1" fill="none" fill-rule="evenodd">
        <path d="M22.6844528,5.24786635 C22.6844528,4.4452515 22.3788293,3.75885237 21.7711779,3.19230071 C21.159931,2.57490467 20.4587948,2.26983839 19.6641737,2.26983839 C18.2583058,2.26983839 15.4249964,3.68621754 11.1642456,6.52260759 C6.76686322,9.40984202 4.0737811,11.4654077 3.08859485,12.696568 C2.5744283,13.3575449 2.31914282,14.0439441 2.31914282,14.7521336 C2.31914282,15.5547485 2.62117072,16.2411476 3.22882209,16.811331 C3.79332662,17.4250953 4.49446282,17.7301616 5.33582626,17.7301616 C6.69495182,17.7301616 9.5498346,16.3137825 13.9040702,13.4773924 C18.2115634,10.6373706 20.8794765,8.58180498 21.9114051,7.303432 C22.4255717,6.6896677 22.6844528,6.00326857 22.6844528,5.24786635 M18.959442,0 C22.9864807,0 25,1.74686762 25,5.24786635 C25,6.95115308 24.5074069,8.93771563 23.5258162,11.207554 C22.5442255,13.4301798 21.2318424,15.1298348 19.5922623,16.3137825 C15.9895009,18.7724714 11.4698691,20 6.04055803,20 C2.01351934,20 0,18.2531324 0,14.7521336 C0,13.1904848 0.492593125,11.2293445 1.47418381,8.86508081 C2.41262764,6.59524242 3.72141522,4.87016524 5.40773767,3.68621754 C9.01409464,1.2275286 13.5301309,0 18.959442,0" id="Shape" fill="#000000" fill-rule="nonzero"></path>
    </g>
</svg>