<?xml version="1.0" encoding="UTF-8"?>
<svg width="16px" height="59px" viewBox="0 0 16 59" version="1.1" xmlns="http://www.w3.org/2000/svg">
    <g id="Artboard-Copy-4" stroke="none" stroke-width="1" fill="none" fill-rule="evenodd">
        <path d="M2.08116545,0 C2.08116545,2.21103018 2.55733611,4.42206035 3.51300728,6.63309053 C4.42206035,8.80083247 5.5508845,10.8586889 6.89281998,12.8099896 L10.7954214,18.5340271 C12.0973985,20.3121748 13.2228928,22.3700312 14.178564,24.7109261 C15.1309053,26.8786681 15.6104058,29.069719 15.6104058,31.2807492 C15.6104058,33.3186264 15.0876171,35.4430801 14.0486993,37.6541103 C15.3473465,40.2980229 16,42.8786681 16,45.3927159 C16,49.3818939 15.0676379,53.4576483 13.2029136,57.6199792 C12.8998959,58.1394381 12.4869927,58.4024974 11.9675338,58.4024974 C11.5346514,58.4024974 11.1417274,58.2260146 10.7954214,57.8797086 C10.535692,57.6199792 10.4058273,57.2969823 10.4058273,56.9040583 C10.4058273,56.9040583 10.4058273,56.7975026 10.4058273,56.5810614 C12.2705515,52.8949011 13.2029136,49.1654527 13.2029136,45.3927159 C13.2029136,43.7044745 12.8765869,42.142768 12.2272633,40.7109261 C11.4480749,39.0193548 10.4924037,37.4609781 9.36690947,36.0291363 C7.93506764,34.1644121 6.8062435,32.8191467 5.98376691,31.9966701 C4.85494277,30.867846 3.55629553,29.6324662 2.08116545,28.2905307 L2.08116545,33.2986472 L0,33.2986472 L0,0 L2.08116545,0 M12.2905307,34.4041623 C12.5968783,33.4917794 12.7467222,32.4528616 12.7467222,31.2807492 C12.7467222,29.7623309 12.4437045,28.2239334 11.8376691,26.6622268 C11.1850156,25.1038502 10.2759625,23.5188345 9.10385016,21.9171696 C8.02164412,20.5719043 6.91612903,19.249948 5.78730489,17.9479709 C4.92154006,16.9956296 3.68616025,15.7369407 2.08116545,14.1752341 C2.08116545,15.9533819 2.45078044,17.8414152 3.18668054,19.8360042 C3.96586889,21.6973985 4.76836629,23.3257024 5.59417274,24.7109261 C6.54651405,26.1860562 7.71862643,27.8543184 9.10385016,29.7190427 C10.4924037,31.5837669 11.5546306,33.1454735 12.2905307,34.4041623" id="Shape" fill="#ffffff" fill-rule="nonzero"></path>
    </g>
</svg>