<?xml version="1.0" encoding="UTF-8"?>
<svg width="16px" height="89px" viewBox="0 0 16 89" version="1.1" xmlns="http://www.w3.org/2000/svg">
    <g id="Artboard-Copy-6" stroke="none" stroke-width="1" fill="none" fill-rule="evenodd">
        <path d="M2.08116545,14.1119667 L2.08116545,14.9577523 C2.08116545,16.9090531 2.42747138,18.7304891 3.12008325,20.4187305 C3.9458897,22.4998959 4.6817898,24.0616025 5.33444329,25.1038502 C6.41664932,26.8353798 7.54547347,28.4836629 8.71425598,30.0453694 C10.1460978,32.1265349 11.1850156,33.6216441 11.8376691,34.5340271 C12.0108221,33.8813736 12.0973985,33.0788762 12.0973985,32.1265349 C12.0973985,30.6081165 11.7943809,29.0031217 11.1850156,27.3148803 C10.6222685,25.7531738 9.75650364,24.1048907 8.58439126,22.3700312 C7.19583767,20.332154 6.17689906,18.9236212 5.52757544,18.1444329 C3.8792924,16.1931322 2.73048907,14.8478668 2.08116545,14.1119667 M2.08116545,0 C2.08116545,2.25431842 2.51404787,4.48532778 3.38314256,6.69635796 C4.42206035,9.29698231 5.50759625,11.4447451 6.63309053,13.1363163 L10.4058273,18.9902185 C11.7078044,20.9848075 12.7900104,23.1092612 13.6591051,25.3635796 C14.5248699,27.7044745 14.9577523,29.9587929 14.9577523,32.1265349 C14.9577523,33.9912591 14.5248699,35.9192508 13.6591051,37.9138398 C14.9577523,40.5577523 15.607076,43.0951093 15.607076,45.5225806 C15.607076,47.9966701 14.9577523,50.4674298 13.6591051,52.9381894 C14.9577523,55.6253902 15.607076,58.1627471 15.607076,60.5469303 C15.607076,62.5848075 14.8278876,64.5594173 13.2661811,66.4640999 C15.0876171,69.6740895 16,72.6876171 16,75.5046826 C16,79.4938606 15.0676379,83.4830385 13.2029136,87.4722164 C12.8566077,87.9483871 12.4437045,88.1881374 11.9675338,88.1881374 C11.5346514,88.1881374 11.1417274,88.0149844 10.7954214,87.6686785 C10.535692,87.3190427 10.4058273,86.9727367 10.4058273,86.6264308 C10.4058273,86.6264308 10.4058273,86.5398543 10.4058273,86.3667014 C12.2705515,82.7671176 13.2029136,79.1475546 13.2029136,75.5046826 C13.2029136,73.9030177 12.8765869,72.3845994 12.2272633,70.9527575 C11.4447451,69.3477627 10.4924037,67.8526535 9.3635796,66.4640999 C8.15150884,64.9922997 7.00270552,63.7136316 5.91716961,62.6280957 C5.35442248,62.0653486 4.07575442,60.873257 2.08116545,59.051821 L2.08116545,66.5972945 L0,66.5972945 L0,0 L2.08116545,0 M2.08116545,29.069719 L2.08116545,29.9787721 C2.08116545,31.9733611 2.42747138,33.8181061 3.12008325,35.5096774 C3.77273673,37.1979188 4.55192508,38.7829344 5.46430801,40.2547347 C6.54651405,41.9895942 7.67533819,43.6378772 8.84412071,45.1995838 C10.1460978,47.064308 11.1850156,48.6027055 11.9675338,49.8147763 C12.4869927,48.4295525 12.7467222,46.9977107 12.7467222,45.5225806 C12.7467222,42.7488033 11.7510926,40.0382934 9.75650364,37.3943809 C7.63204995,34.5773153 5.07138398,31.8002081 2.08116545,29.069719 M2.08116545,44.0940687 L2.08116545,44.9398543 C2.08116545,46.8478668 2.42747138,48.6459938 3.12008325,50.337565 C3.81602497,52.0724246 4.55192508,53.5675338 5.33444329,54.8228928 C6.02705515,55.9084287 7.13257024,57.5334027 8.65098855,59.7011446 C10.4258065,62.2151925 11.4447451,63.6470343 11.7078044,63.9933403 C12.3138398,62.9977107 12.6601457,61.8489074 12.7467222,60.5469303 C12.7467222,57.773153 11.7510926,55.0626431 9.75650364,52.4187305 C7.63204995,49.5983351 5.07138398,46.8245578 2.08116545,44.0940687" id="Shape" fill="#ffffff" fill-rule="nonzero"></path>
    </g>
</svg>