<?xml version="1.0" encoding="UTF-8"?>
<svg width="16px" height="72px" viewBox="0 0 16 72" version="1.1" xmlns="http://www.w3.org/2000/svg">
    <g id="Artboard-Copy-5" stroke="none" stroke-width="1" fill="none" fill-rule="evenodd">
        <path d="M2.08116545,14.1119667 L2.08116545,14.4349636 C2.08116545,16.3429761 2.42747138,18.1444329 3.12008325,19.8360042 C3.9458897,21.9604579 4.6817898,23.4988554 5.33111342,24.4511967 C6.45993757,26.142768 7.58876171,27.7477627 8.71425598,29.2661811 C10.1460978,31.3473465 11.1850156,32.8424558 11.8376691,33.7515088 C12.0108221,33.1887617 12.0973985,32.4528616 12.0973985,31.5404787 C12.0973985,29.6324662 11.4880333,27.4880333 10.2759625,25.1038502 C9.01727367,22.6297607 7.8251821,20.7217482 6.69968783,19.3798127 C5.13798127,17.4718002 3.59958377,15.7169615 2.08116545,14.1119667 M2.08116545,0 C2.08116545,2.21103018 2.51404787,4.42206035 3.38314256,6.63309053 C4.20561915,8.71425598 5.28782518,10.7954214 6.63309053,12.8765869 L10.4058273,18.7304891 C11.7078044,20.6784599 12.7900104,22.7596254 13.6557752,24.9739854 C14.5248699,27.2283039 14.9577523,29.416025 14.9577523,31.5404787 C14.9577523,33.3186264 14.5248699,35.1400624 13.6557752,37.0047867 C14.9577523,39.6486993 15.607076,42.1627471 15.607076,44.5469303 C15.607076,46.8478668 15.0676379,49.1654527 13.982102,51.5063476 C15.3273673,54.0203954 16,56.5377732 16,59.051821 C16,62.9111342 15.0676379,66.7904266 13.2029136,70.6930281 C12.8998959,71.2557752 12.4869927,71.5388137 11.9675338,71.5388137 C11.5313215,71.5388137 11.1417274,71.3656608 10.7954214,71.0193548 C10.535692,70.669719 10.4058273,70.3234131 10.4058273,69.9771072 C10.4058273,69.9771072 10.4058273,69.8905307 10.4058273,69.7173777 C12.2705515,66.1610822 13.2029136,62.6081165 13.2029136,59.051821 C13.2029136,56.3213319 12.160666,53.6541103 10.0795005,51.053486 C7.95504683,48.4062435 5.28782518,45.7623309 2.08116545,43.1184183 L2.08116545,49.9479709 L0,49.9479709 L0,0 L2.08116545,0 M2.08116545,28.6135276 L2.08116545,28.9398543 C2.08116545,30.6314256 2.45078044,32.4528616 3.18668054,34.4041623 C3.96586889,36.3954214 4.72507804,37.9371488 5.46430801,39.0193548 C5.94047867,39.7152966 7.10926119,41.3169615 8.97398543,43.8343392 C10.535692,45.9587929 11.5979188,47.4305931 12.160666,48.2563996 C12.5502601,47.040999 12.7467222,45.8056191 12.7467222,44.5469303 C12.7467222,42.6855359 12.1173777,40.6676379 10.8620187,38.4998959 C9.73319459,36.505307 8.45452653,34.7704475 7.0226847,33.2986472 C5.63746098,31.8235172 3.98917794,30.2618106 2.08116545,28.6135276" id="Shape" fill="#ffffff" fill-rule="nonzero"></path>
    </g>
</svg>