<?xml version="1.0" encoding="UTF-8"?>
<svg width="16px" height="63px" viewBox="0 0 16 63" version="1.1" xmlns="http://www.w3.org/2000/svg">
    <g id="Artboard-Copy-9" stroke="none" stroke-width="1" fill="none" fill-rule="evenodd">
        <path d="M0,0.565114909 C0.694140197,0.185621685 1.38828039,0 2.08242059,0 C2.78066813,0 3.47480832,0.185621685 4.16894852,0.565114909 L3.93072289,15.6293459 L12.6752464,14.0164997 L12.9956188,14.0164997 C13.956736,14.0164997 14.4372946,14.4743665 14.4372946,15.3859753 L15,62.43901 C14.3058598,62.8143783 13.6076123,63 12.9134721,63 C12.2193319,63 11.5251917,62.8143783 10.8269441,62.43901 L11.0692771,47.3706541 L2.40690033,48.9835003 L2.08242059,48.9835003 C1.1213034,48.9835003 0.640744797,48.5256335 0.640744797,47.6140247 L0,0.565114909 M11.750792,39.5114623 L12,22 L4.24498416,23.4885377 L4,41 L11.750792,39.5114623" id="Shape" fill="#ffffff" fill-rule="nonzero"></path>
    </g>
</svg>