<?xml version="1.0" encoding="UTF-8"?>
<svg width="16px" height="113px" viewBox="0 0 16 113" version="1.1" xmlns="http://www.w3.org/2000/svg" xmlns:xlink="http://www.w3.org/1999/xlink">
    <!-- Generator: Sketch 50.2 (55047) - http://www.bohemiancoding.com/sketch -->
    <title>Artboard Copy 7</title>
    <desc>Created with Sketch.</desc>
    <defs></defs>
    <g id="Artboard-Copy-7" stroke="none" stroke-width="1" fill="none" fill-rule="evenodd">
        <path d="M1.11487088,15.1629564 L1.11487088,16.5556545 C1.11487088,18.5040071 1.48530721,20.4523598 2.22617988,22.4007124 C2.87444346,24.160285 3.66518255,25.7845058 4.59127337,27.269813 C5.33570793,28.5200356 6.51825467,30.2617988 8.13891362,32.4879786 C9.30008905,34.1086376 10.3900267,35.7114871 11.4087266,37.2858415 C11.5939448,36.5449688 11.7328584,35.4550312 11.8254675,34.0160285 C11.8254675,31.9750668 11.1772039,29.681211 9.88067676,27.1308994 C8.58058771,24.5805877 7.32680321,22.5146928 6.12288513,20.9367765 C4.59127337,19.0845948 2.920748,17.1576135 1.11487088,15.1629564 M1.11487088,0 C1.11487088,2.22617988 1.5779163,4.59127337 2.50400712,7.0952805 C3.47996438,9.50667854 4.63757792,11.779163 5.9839715,13.9127337 L10.0195904,20.1745325 C11.4087266,22.4007124 12.569902,24.6482636 13.4959929,26.920748 C14.4256456,29.4247551 14.888691,31.7898486 14.888691,34.0160285 C14.888691,36.1959038 14.4256456,38.4933215 13.4959929,40.9047195 C14.888691,43.779163 15.5832591,46.4933215 15.5832591,49.0436331 C15.5832591,51.779163 14.888691,54.5859305 13.4959929,57.460374 C14.888691,60.3383793 15.5832591,63.0276046 15.5832591,65.5316118 C15.5832591,68.3134461 14.888691,71.141585 13.4959929,74.0195904 C14.888691,76.8940338 15.5832591,79.6081923 15.5832591,82.158504 C15.5832591,84.5235975 14.7497774,86.8210151 13.079252,89.047195 C15.0276046,92.477293 16,95.6758682 16,98.6464826 C16,102.86732 15.0026714,107.109528 13.0115761,111.37667 C12.6375779,111.88602 12.1994657,112.142476 11.6865539,112.142476 C11.2235085,112.142476 10.8067676,111.957257 10.4363313,111.586821 C10.158504,111.212823 10.0195904,110.842386 10.0195904,110.47195 L10.0195904,110.194123 C12.0142476,106.390027 13.0115761,102.543188 13.0115761,98.6464826 C13.0115761,95.7720392 11.8967053,92.8940338 9.67052538,90.0195904 C7.53695459,87.3303651 4.68388246,84.4309884 1.11487088,81.3250223 L1.11487088,89.047195 L0,89.047195 L0,0 L1.11487088,0 M1.11487088,31.7221728 L1.11487088,33.111309 C1.11487088,35.0596616 1.48530721,37.0080142 2.22617988,38.9563669 C2.96705254,40.9047195 3.77916296,42.5752449 4.66251113,43.9643811 C5.31077471,44.9866429 6.49332146,46.7497774 8.21015138,49.2537845 C9.59928762,51.1059662 10.7355298,52.7088157 11.618878,54.0516474 C12.220837,52.3846839 12.5235975,50.7141585 12.5235975,49.0436331 C12.5235975,46.9563669 11.8504007,44.7551202 10.5040071,42.4363313 C9.16117542,40.0712378 7.79341051,38.1691897 6.40071238,36.730187 C4.91540516,35.1522707 3.15583259,33.4853072 1.11487088,31.7221728 M1.11487088,48.2101514 L1.11487088,49.6705254 C1.11487088,51.618878 1.48530721,53.5672306 2.22617988,55.5120214 C2.96705254,57.460374 3.77916296,59.1308994 4.66251113,60.5235975 C5.49599288,61.8201247 6.67853963,63.5618878 8.21015138,65.7417631 C9.27515583,67.1772039 10.411398,68.8014248 11.618878,70.6108638 C12.220837,68.9403384 12.5235975,67.2484417 12.5235975,65.5316118 C12.5235975,63.49065 11.8504007,61.3107747 10.5040071,58.9919858 C9.16117542,56.6268923 7.79341051,54.7248442 6.40071238,53.2858415 C4.63757792,51.4336598 2.87444346,49.7382012 1.11487088,48.2101514 M1.11487088,64.8370436 L1.11487088,66.2261799 C1.11487088,68.128228 1.48530721,70.030276 2.22617988,71.9323241 C2.920748,73.6954586 3.66518255,75.269813 4.45235975,76.6625111 C5.10062333,77.7738201 6.30810329,79.49065 8.07123776,81.809439 C10.158504,84.6874443 11.2484417,86.1941229 11.3410508,86.3330365 C12.0356189,85.1718611 12.4309884,83.7827248 12.5235975,82.158504 C12.5235975,80.0712378 11.8504007,77.8664292 10.5040071,75.5476402 C9.16117542,73.1825467 7.79341051,71.2840606 6.40071238,69.8450579 C4.91540516,68.2671416 3.15583259,66.5966162 1.11487088,64.8370436" id="Shape" fill="#000000" fill-rule="nonzero"></path>
    </g>
</svg>