<?xml version="1.0" encoding="UTF-8"?>
<svg width="20px" height="37px" viewBox="0 0 20 37" version="1.1" xmlns="http://www.w3.org/2000/svg" xmlns:xlink="http://www.w3.org/1999/xlink">
    <!-- Generator: Sketch 50.2 (55047) - http://www.bohemiancoding.com/sketch -->
    <title>Artboard Copy 17</title>
    <desc>Created with Sketch.</desc>
    <defs></defs>
    <g id="Artboard-Copy-17" stroke="none" stroke-width="1" fill="none" fill-rule="evenodd">
        <path d="M5.79280348,0 C7.28351127,0 8.41834717,0.411229735 9.18940293,1.23368921 C9.96045868,2.16291024 10.3756425,3.03677343 10.4270463,3.86318703 C10.5298537,4.63424278 10.7868723,5.50810597 11.198102,6.48873072 C11.6607355,7.31119019 12.2538553,7.72241993 12.9735073,7.72241993 C13.5389482,7.72241993 14.3890866,7.0778964 15.5239225,5.79280348 C16.5519968,4.65796758 17.2993278,3.65361803 17.7619612,2.77975484 C18.0189798,2.26571767 18.3788059,2.00869909 18.8453934,2.00869909 L18.9205219,2.00869909 C19.4345591,2.06010281 19.7943851,2.31712139 20,2.77975484 L10.2728351,35.9905101 C9.75484381,36.5045473 9.03519178,36.7615658 8.10992487,36.7615658 C7.18070384,36.7615658 6.4610518,36.5045473 5.94701463,35.9905101 L15.2155002,10.1937525 C11.9177541,11.3799921 9.13799921,11.9691578 6.87228153,11.9691578 C5.01779359,11.9691578 3.42427837,11.3799921 2.0838276,10.1937525 C0.695927244,9.0628707 0,7.56820878 0,5.71372084 C0,4.12020561 0.565440886,2.77975484 1.70027679,1.70027679 C2.83115856,0.565440886 4.19533412,0 5.79280348,0" id="Shape" fill="#000000" fill-rule="nonzero"></path>
    </g>
</svg>