<?xml version="1.0" encoding="UTF-8"?>
<svg width="25px" height="55px" viewBox="0 0 25 55" version="1.1" xmlns="http://www.w3.org/2000/svg">
    <g id="Artboard-Copy-18" stroke="none" stroke-width="1" fill="none" fill-rule="evenodd">
        <path d="M11.6012571,0 C13.0998007,0 14.1729266,0.398589606 14.8206347,1.19576882 C15.5181665,2.04660432 15.9435842,2.89360724 16.0930553,3.74444274 C16.142879,4.59144565 16.3919975,5.43844857 16.8404109,6.28928407 C17.1393531,7.08646328 17.6912464,7.48505289 18.4884256,7.48505289 C18.9866626,7.48505289 19.7378507,6.88716848 20.7343247,5.68756707 C21.8802698,4.29250345 22.6046298,3.29219684 22.903572,2.69431243 C23.1565231,2.19607543 23.505289,1.94695692 23.9537023,1.94695692 C23.9537023,1.94695692 23.9766978,1.94695692 24.0265215,1.94695692 C24.4787674,1.99678062 24.8007052,2.24589913 25,2.69431243 L11.3023149,54.0472175 C10.8040779,54.5454545 10.1065461,54.794573 9.20588686,54.794573 C8.30906025,54.794573 7.61152844,54.5454545 7.10945884,54.0472175 L14.8206347,28.9705657 C11.4786141,30.1663345 8.75747356,30.7642189 6.66104553,30.7642189 C4.86355971,30.7642189 3.31902499,30.1931627 2.01977618,29.0433849 C0.674536256,27.9472635 0,26.4985436 0,24.7010578 C0,23.1565231 0.525065154,21.8572743 1.57136287,20.8109765 C2.66748429,19.7110225 3.99356124,19.1629618 5.53809597,19.1629618 C7.03663958,19.1629618 8.10976545,19.5615514 8.75747356,20.3587306 C9.50482907,21.2095662 9.95324237,22.0565691 10.1065461,22.9074046 C10.2560172,23.9038786 10.5051357,24.7508815 10.8539016,25.4522459 C11.2026675,26.2494251 11.7507282,26.6480147 12.5019163,26.6480147 C13.0998007,26.6480147 13.9468036,25.9504829 15.0467576,24.5515867 C16.1927027,23.2561705 16.8902346,22.2328683 17.1393531,21.4816802 L20.6576728,9.88042312 C17.4651234,11.0302008 14.7976391,11.6012571 12.6513874,11.6012571 C10.8539016,11.6012571 9.30553426,11.0302008 8.01011804,9.88042312 C6.66104553,8.7843017 5.98650927,7.33558179 5.98650927,5.53809597 C5.98650927,3.99356124 6.53840258,2.69431243 7.63452399,1.64801472 C8.73064541,0.548060708 10.0567224,0 11.6012571,0" id="Shape" fill="#ffffff" fill-rule="nonzero"></path>
    </g>
</svg>