<?xml version="1.0" encoding="UTF-8"?>
<svg width="35px" height="102px" viewBox="0 0 35 102" version="1.1" xmlns="http://www.w3.org/2000/svg">
    <g id="Artboard-Copy-20" stroke="none" stroke-width="1" fill="none" fill-rule="evenodd">
        <path d="M21.0629496,0 C22.6492806,0 23.8495204,0.436450839 24.6720624,1.30935252 C25.4904077,2.24100719 25.9814149,3.16846523 26.1450839,4.1001199 C26.1996403,5.13669065 26.4472422,6.06414868 26.883693,6.88669065 C27.2655875,7.75959233 27.8950839,8.19604317 28.7679856,8.19604317 C29.2086331,8.19604317 29.8884892,7.54136691 30.8201439,6.22781775 C31.5839329,5.08213429 32.2134293,3.98681055 32.7044365,2.95023981 C32.9772182,2.40467626 33.3591127,2.13189448 33.8501199,2.13189448 C34.3411271,2.13189448 34.7272182,2.40467626 35,2.95023981 L15.3261391,101.147482 C14.7805755,101.693046 13.9874101,101.965827 12.9508393,101.965827 C12.0191847,101.965827 11.2553957,101.693046 10.6552758,101.147482 L16.8033573,73.6049161 C13.1942446,74.9730216 10.0257794,75.6528777 7.29376499,75.6528777 C5.32553957,75.6528777 3.63429257,75.0275779 2.2116307,73.7685851 C0.738609113,72.5683453 0,70.9820144 0,69.013789 C0,67.322542 0.600119904,65.8998801 1.80455635,64.7541966 C3.00479616,63.5497602 4.45263789,62.9496403 6.14808153,62.9496403 C7.78477218,62.9496403 8.95983213,63.3860911 9.67326139,64.2589928 C10.4370504,65.1906475 10.9028777,66.1181055 11.0665468,67.0497602 C11.2302158,68.1408873 11.5029976,69.0683453 11.8848921,69.8363309 C12.2667866,70.7092326 12.8669065,71.1456835 13.6894484,71.1456835 C14.3441247,71.1456835 15.3261391,70.3273381 16.6396882,68.6864508 C17.8944844,67.1043165 18.603717,65.8998801 18.7715827,65.0815348 L21.5581535,52.7056355 C18.1127098,54.014988 15.0533573,54.6696643 12.3758993,54.6696643 C10.4076739,54.6696643 8.71642686,54.0443645 7.29376499,52.7853717 C5.82074341,51.5851319 5.08213429,49.998801 5.08213429,48.0305755 C5.08213429,46.3393285 5.65707434,44.9166667 6.80275779,43.7709832 C8.0029976,42.5665468 9.45083933,41.9664269 11.146283,41.9664269 C12.7871703,41.9664269 13.9622302,42.4028777 14.6714628,43.2757794 C15.4898082,44.2074341 15.9808153,45.1348921 16.1486811,46.0665468 C16.2032374,47.1031175 16.4466427,48.0305755 16.8830935,48.8531175 C17.264988,49.7260192 17.8944844,50.16247 18.7715827,50.16247 C19.3171463,50.16247 20.190048,49.3986811 21.3944844,47.8669065 C22.5401679,46.2302158 23.1948441,45.0257794 23.3585132,44.2619904 L26.2290168,31.7224221 C22.5653477,33.0317746 19.5899281,33.6864508 17.2943645,33.6864508 C15.3261391,33.6864508 13.6348921,33.0611511 12.2122302,31.8021583 C10.735012,30.6019185 10.0005995,29.0155875 10.0005995,27.0473621 C10.0005995,25.3561151 10.6007194,23.9334532 11.8009592,22.7877698 C13.0053957,21.5833333 14.4532374,20.9832134 16.1486811,20.9832134 C17.7853717,20.9832134 18.9604317,21.4196643 19.6696643,22.2925659 C20.4376499,23.2242206 20.8992806,24.1516787 21.0629496,25.0833333 C21.117506,26.0107914 21.3944844,26.9382494 21.8854916,27.8699041 C22.2128297,28.7428058 22.8129496,29.1792566 23.6858513,29.1792566 C24.2901679,29.1792566 25.1085132,28.4154676 26.1450839,26.883693 C27.1858513,25.3561151 27.8111511,24.2356115 28.0335731,23.5221823 L30.8998801,10.8189448 C27.4586331,12.0779376 24.617506,12.7032374 22.3764988,12.7032374 C20.4082734,12.7032374 18.7170264,12.0779376 17.2943645,10.8189448 C15.8171463,9.61870504 15.0827338,8.0323741 15.0827338,6.06414868 C15.0827338,4.37290168 15.6534772,2.95023981 16.8033573,1.80455635 C17.9490408,0.600119904 19.3717026,0 21.0629496,0" id="Shape" fill="#ffffff" fill-rule="nonzero"></path>
    </g>
</svg>