<?xml version="1.0" encoding="UTF-8"?>
<svg width="30px" height="77px" viewBox="0 0 30 77" version="1.1" xmlns="http://www.w3.org/2000/svg">
    <g id="Artboard-Copy-19" stroke="none" stroke-width="1" fill="none" fill-rule="evenodd">
        <path d="M16.5025668,0 C17.9952613,0 19.1286034,0.41068843 19.8986442,1.23206529 C20.668685,2.16006318 21.0793734,3.0327761 21.1307095,3.85810188 C21.2333816,4.62814269 21.4940108,5.5008556 21.9046992,6.48018955 C22.3667237,7.30156641 22.9590628,7.71225484 23.6777675,7.71225484 C24.139792,7.71225484 24.8861393,7.09622219 25.9128603,5.86020798 C26.8408582,4.52547058 27.4568909,3.49480058 27.7649072,2.77609583 C28.0215875,2.26273529 28.3809398,2.00605502 28.8429643,2.00605502 L28.9219429,2.00605502 C29.4353034,2.05739108 29.7946558,2.31407134 30,2.77609583 L12.9564302,75.4324075 C12.4430696,75.9457681 11.6967224,76.2024483 10.7213374,76.2024483 C9.84467553,76.2024483 9.12597078,75.9457681 8.56127419,75.4324075 L15.3494801,49.5945768 C12.1074108,50.8266421 9.27997894,51.4426747 6.86323549,51.4426747 C5.06252468,51.4426747 3.44346453,50.8542846 2.00605502,49.6696064 C0.667368698,48.4888772 0,46.9961827 0,45.1954719 C0,43.6040542 0.564696591,42.2653679 1.69408977,41.1873108 C2.77609583,40.0539687 4.08713966,39.4892721 5.6311702,39.4892721 C7.11991576,39.4892721 8.25325786,39.8999605 9.02329867,40.7213374 C9.84467553,41.5979992 10.2830064,42.4707121 10.3343425,43.347374 C10.4883507,44.374095 10.7450309,45.246808 11.1043833,45.9694616 C11.4637357,46.7908385 12.0560748,47.2015269 12.8814006,47.2015269 C13.4460971,47.2015269 14.3188101,46.4828222 15.5034882,45.0414637 C16.5815453,43.6040542 17.248914,42.4707121 17.5055943,41.6493353 L20.5936554,29.8499408 C17.1462419,31.0820061 14.3464525,31.6980387 12.1863894,31.6980387 C10.3343425,31.6980387 8.73897591,31.1096485 7.40423852,29.9249704 C6.01421614,28.7955772 5.31920495,27.3028827 5.31920495,25.4508359 C5.31920495,23.8594182 5.88785047,22.5207319 7.01724365,21.4426747 C8.15058576,20.3093326 9.51296564,19.744636 11.1043833,19.744636 C12.6484138,19.744636 13.7541135,20.1553245 14.4214822,20.9767013 C15.1401869,21.8533632 15.5785178,22.7260761 15.732526,23.6027379 C15.8865342,24.629459 16.1432144,25.5021719 16.5025668,26.2248256 C16.8658681,27.0462024 17.4305647,27.4568909 18.2006055,27.4568909 C18.7653021,27.4568909 19.5906279,26.7381861 20.668685,25.2968277 C21.7506911,24.0134264 22.4180598,22.9590628 22.67474,22.133737 L25.8378307,10.1803343 C22.5957615,11.3650125 19.8710017,11.9534027 17.6596025,11.9534027 C15.8628406,11.9534027 14.2437804,11.3650125 12.802422,10.1803343 C11.4637357,8.99960511 10.796367,7.50691062 10.796367,5.70619982 C10.796367,4.11478215 11.3610636,2.77609583 12.4944057,1.6980387 C13.5724628,0.564696591 14.9111491,0 16.5025668,0" id="Shape" fill="#000000" fill-rule="nonzero"></path>
    </g>
</svg>