<?xml version="1.0" encoding="UTF-8"?>
<svg width="40px" height="135px" viewBox="0 0 40 135" version="1.1" xmlns="http://www.w3.org/2000/svg">
    <g id="Artboard-Copy-21" stroke="none" stroke-width="1" fill="none" fill-rule="evenodd">
        <path d="M25.1708664,0 C26.9059947,0 28.2269014,0.478656081 29.1243815,1.43596824 C30.0816937,2.45771488 30.592567,3.47485905 30.652399,4.49660568 C30.8318951,5.69324589 31.1310551,6.71039006 31.5498792,7.55264066 C31.9733057,8.50995282 32.6314578,8.98860891 33.528938,8.98860891 C34.3067541,8.98860891 35.5954436,7.06938212 37.3950063,3.23553101 C37.6941664,2.63721091 38.1129904,2.33805086 38.6514785,2.33805086 L38.7435278,2.33805086 C39.3418479,2.39788287 39.760672,2.69704292 40,3.23553101 L18.1567138,133.940858 C17.5583937,134.539178 16.7207456,134.838339 15.639167,134.838339 C14.6220228,134.838339 13.7843746,134.539178 13.1216201,133.940858 L18.6952019,103.642849 C14.3826947,105.203084 10.8157864,105.9809 7.99907951,105.9809 C5.84052468,105.9809 3.98573237,105.295133 2.42549764,103.914394 C0.810033368,102.59809 0,100.858359 0,98.6998044 C0,96.8450121 0.630537337,95.2847774 1.88700955,94.0283051 C3.20791624,92.7073985 4.7635485,92.0492463 6.56311126,92.0492463 C8.29823956,92.0492463 9.61914624,92.5279024 10.5166264,93.4852146 C11.4141065,94.5069612 11.9571971,95.5241054 12.1366931,96.545852 C12.1965251,97.6826602 12.463468,98.6998044 12.942124,99.601887 C13.3655506,100.559199 14.0237027,101.037855 14.9211828,101.037855 C15.698999,101.037855 16.8081924,100.140375 18.2487631,98.3408123 C19.6847313,96.3617535 20.4349327,94.9534001 20.4947647,94.1157519 L23.0123116,80.7225866 C18.874698,82.2229893 15.3998389,82.9685882 12.583132,82.9685882 C10.4890116,82.9685882 8.59739961,82.2828213 6.92210333,80.9020826 C5.3618686,79.5259464 4.58405247,77.7862156 4.58405247,75.6874928 C4.58405247,73.8327005 5.24220458,72.2724658 6.56311126,71.0159936 C7.81958348,69.6950869 9.34760097,69.0369348 11.1471637,69.0369348 C12.882292,69.0369348 14.2031987,69.5155908 15.1006789,70.472903 C16.057991,71.4946496 16.5688643,72.5117938 16.6286964,73.5335404 C16.8081924,74.7301806 17.1073524,75.7473248 17.5261765,76.5895754 C17.949603,77.5468876 18.6353699,78.0255437 19.5972845,78.0255437 C20.3152687,78.0255437 21.3047981,77.1280635 22.5612703,75.3285007 C23.822345,73.6532045 24.5403291,72.3322978 24.7198251,71.3749856 L27.237372,57.8023242 C23.4633529,59.2382925 20.1357726,59.9562766 17.2592337,59.9562766 C15.1605109,59.9562766 13.2735013,59.2705097 11.5936026,57.889771 C10.0379703,56.5136348 9.26015418,54.773904 9.26015418,52.6751812 C9.26015418,50.8203889 9.91830629,49.2601542 11.2346105,48.003682 C12.4956852,46.6827753 14.0513175,46.0246232 15.9107122,46.0246232 C17.650443,46.0246232 18.9667472,46.5032793 19.8642274,47.4605914 C20.76631,48.5421701 21.2449661,49.5593142 21.3047981,50.5212289 C21.4244621,51.418709 21.7236221,52.4358532 22.2022782,53.5772638 C22.7407663,54.534576 23.4311357,55.0132321 24.2687838,55.0132321 C24.8717064,55.0132321 25.7691865,54.1755839 26.9658267,52.4956852 C28.1072374,50.7605569 28.7653895,49.4396502 28.9448855,48.5421701 L31.5498792,34.8774594 C27.7160281,36.2581981 24.4804971,36.943965 21.8432862,36.943965 C19.6847313,36.943965 17.829939,36.2581981 16.2697043,34.8774594 C14.6496376,33.5611552 13.8442067,31.8214245 13.8442067,29.6628696 C13.8442067,27.8080773 14.4701415,26.2478426 15.7312162,24.9913704 C17.0475204,23.6704637 18.6353699,23.0123116 20.4947647,23.0123116 C22.2943275,23.0123116 23.5830169,23.4909677 24.360833,24.4482798 C25.2583132,25.4700265 25.7968013,26.4871706 25.9762973,27.5089173 C26.0361293,28.5260614 26.3398918,29.5432056 26.8783799,30.5649522 C27.237372,31.5222644 27.8955241,32.0009205 28.8528363,32.0009205 C29.4557588,32.0009205 30.293407,31.1632724 31.3703832,29.4833736 C32.3921298,27.8080773 32.9904499,26.5792199 33.1699459,25.7968013 L35.7749396,11.8651479 C32.1205845,13.2458865 29.0323323,13.9316534 26.5193879,13.9316534 C24.360833,13.9316534 22.5014383,13.2458865 20.945806,11.8651479 C19.3257393,10.5488436 18.5157059,8.80911288 18.5157059,6.65055805 C18.5157059,4.79576573 19.1462432,3.23553101 20.4027155,1.9790588 C21.7236221,0.658152111 23.3114716,0 25.1708664,0" id="Shape" fill="#000000" fill-rule="nonzero"></path>
    </g>
</svg>