<?xml version="1.0" encoding="UTF-8"?>
<svg width="20px" height="54px" viewBox="0 0 20 54" version="1.1" xmlns="http://www.w3.org/2000/svg" xmlns:xlink="http://www.w3.org/1999/xlink">
    <!-- Generator: Sketch 50.2 (55047) - http://www.bohemiancoding.com/sketch -->
    <title>Artboard Copy 16</title>
    <desc>Created with Sketch.</desc>
    <defs></defs>
    <g id="Artboard-Copy-16" stroke="none" stroke-width="1" fill="none" fill-rule="evenodd">
        <path d="M1.32033008,23.8822206 C1.32033008,23.0045011 1.80795199,22.0255064 2.7831958,20.9527382 C3.51837959,20.1687922 4.59114779,19.2423106 6.00900225,18.1695424 C7.08177044,17.4343586 8.13203301,16.3353338 9.15978995,14.8724681 C10.1350338,13.4546137 10.6226557,11.9167292 10.6226557,10.2550638 C10.6226557,8.30082521 9.98874719,6.56789197 8.71717929,5.05251313 L6.08027007,1.90547637 C5.88522131,1.71042761 5.78769692,1.46286572 5.78769692,1.17029257 C5.78769692,0.87771943 5.9339835,0.611402851 6.22655664,0.36384096 C6.57164291,0.120030008 6.86421605,0 7.10802701,0 C7.44936234,0 7.71942986,0.146286572 7.91447862,0.438859715 L19.2685671,13.9197299 C19.756189,14.5536384 20,15.1875469 20,15.8252063 C20,16.7029257 19.5123781,17.6781695 18.5371343,18.7546887 C17.8994749,19.4373593 16.8492123,20.3675919 15.3863466,21.5378845 C14.2610653,22.2205551 13.1882971,23.3195799 12.1605401,24.8349587 C11.1852963,26.2528132 10.6976744,27.7906977 10.6976744,29.4486122 C10.6976744,31.5003751 11.2828207,33.2370593 12.4568642,34.6511628 L18.7546887,42.0517629 C18.9009752,42.1980495 19.0247562,42.4418605 19.1222806,42.7831958 C19.1222806,43.1245311 18.9984996,43.4171043 18.7546887,43.6609152 C18.4133533,43.9084771 18.1207802,44.0285071 17.8769692,44.0285071 C17.7794449,44.0285071 17.3893473,43.7584396 16.7029257,43.2220555 C15.9714929,42.6369092 14.9962491,42.0742686 13.7734434,41.5378845 C12.408102,41.0015004 11.0615154,40.7314329 9.74493623,40.7314329 C8.52213053,40.7314329 7.52063016,41.0727682 6.74043511,41.7591898 C6.05776444,42.4418605 5.71642911,43.7584396 5.71642911,45.7126782 C5.71642911,48.6946737 6.4216054,51.0390098 7.83945986,52.7456864 C7.98574644,52.9407352 8.012003,53.1882971 7.91447862,53.4808702 C7.81695424,53.675919 7.6444111,53.7734434 7.40060015,53.7734434 C7.05926482,53.7734434 6.30157539,52.891973 5.12753188,51.1365341 C3.90847712,49.27982 2.76069017,47.1530383 1.68417104,44.75994 C0.56264066,42.2205551 0,40.12003 0,38.4621155 C0,36.3615904 1.00150038,35.3113278 3.00450113,35.3113278 C5.30007502,35.3113278 8.27831958,36.0915229 11.9429857,37.6556639 L2.05176294,25.7876969 C1.56414104,25.1537884 1.32033008,24.516129 1.32033008,23.8822206" id="Shape" fill="#000000" fill-rule="nonzero"></path>
    </g>
</svg>