<?xml version="1.0" encoding="UTF-8"?>
<svg width="20px" height="55px" viewBox="0 0 20 55" version="1.1" xmlns="http://www.w3.org/2000/svg">
    <g id="Artboard-Copy-8" stroke="none" stroke-width="1" fill="none" fill-rule="evenodd">
        <path d="M15.6753813,49.8547567 C15.6753813,50.751634 15.2251271,51.2018882 14.3282498,51.2018882 C13.4277415,51.2018882 12.9811184,50.751634 12.9811184,49.8547567 L12.9811184,39.3572985 L6.94989107,41.6267248 L6.94989107,53.1154684 C6.94989107,54.0159768 6.50326797,54.4662309 5.60275962,54.4662309 C4.70588235,54.4662309 4.25562818,54.0159768 4.25562818,53.1154684 L4.25562818,42.5490196 L1.98620189,43.4023239 C1.93899782,43.449528 1.75018155,43.4713145 1.41975309,43.4713145 C1.04212055,43.4713145 0.711692084,43.3297023 0.428467683,43.0464779 C0.1416122,42.7632534 0,42.432825 0,42.0551924 L0,37.6579521 C0,36.94626 0.308641975,36.4996369 0.922294844,36.3108206 L4.25562818,35.1742919 L4.25562818,23.5439361 L1.98620189,24.3246187 C1.93899782,24.3718228 1.75018155,24.3936093 1.41975309,24.3936093 C1.04212055,24.3936093 0.711692084,24.2519971 0.428467683,23.9687727 C0.1416122,23.6855483 0,23.3551198 0,22.9774873 L0,18.5802469 C0,17.9157589 0.308641975,17.4909223 0.922294844,17.302106 L4.25562818,16.0275962 L4.25562818,4.60784314 C4.25562818,3.71096587 4.70588235,3.26071169 5.60275962,3.26071169 C6.50326797,3.26071169 6.94989107,3.71096587 6.94989107,4.60784314 L6.94989107,15.1053014 L12.9811184,12.8358751 L12.9811184,1.34713145 C12.9811184,0.446623094 13.4277415,0 14.3282498,0 C15.2251271,0 15.6753813,0.446623094 15.6753813,1.34713145 L15.6753813,11.9135802 L18.0137981,11.060276 C18.0610022,11.0130719 18.228032,10.9912854 18.5112564,10.9912854 C18.8416848,10.9912854 19.1975309,11.1328976 19.5751634,11.416122 C19.8583878,11.6993464 20,12.0297749 20,12.4074074 L20,16.8046478 C20,17.4691358 19.6695715,17.9157589 19.0087146,18.1554103 L15.6753813,19.2883079 L15.6753813,30.9186638 L18.0137981,30.1379811 C18.0610022,30.0907771 18.228032,30.0689906 18.5112564,30.0689906 C18.8416848,30.0689906 19.1975309,30.2106028 19.5751634,30.4938272 C19.8583878,30.7770516 20,31.10748 20,31.4851126 L20,35.8823529 C20,36.4996369 19.6695715,36.9244735 19.0087146,37.1604938 L15.6753813,38.4350036 L15.6753813,49.8547567 M12.9811184,20.352215 L6.94989107,22.480029 L6.94989107,34.1103849 L12.9811184,31.9825708 L12.9811184,20.352215" id="Shape" fill="#ffffff" fill-rule="nonzero"></path>
    </g>
</svg>