<?xml version="1.0" encoding="utf-8"?>
<!-- Generator: Adobe Illustrator 21.1.0, SVG Export Plug-In . SVG Version: 6.00 Build 0)  -->
<!DOCTYPE svg PUBLIC "-//W3C//DTD SVG 1.1//EN" "http://www.w3.org/Graphics/SVG/1.1/DTD/svg11.dtd" [
<!ENTITY st0 "fill:none;stroke:#000000;stroke-width:0.4;stroke-linejoin:bevel;">
<!ENTITY st1 "fill:none;stroke:#000000;stroke-width:0.8;stroke-linecap:square;stroke-linejoin:bevel;">
<!ENTITY st2 "fill:none;stroke:#000000;stroke-width:0.65;stroke-linecap:round;stroke-linejoin:bevel;">
]>
<svg xmlns="http://www.w3.org/2000/svg" xmlns:xlink="http://www.w3.org/1999/xlink" x="0px" y="0px"
	xml:space="preserve">
	<defs>
    <symbol id="staff">
			<line style="&st0;" x1="0" y1="119.2" x2="100" y2="119.2"/>
			<line style="&st0;" x1="0" y1="137.3" x2="100" y2="137.3"/>
			<line style="&st0;" x1="0" y1="155.3" x2="100" y2="155.3"/>
			<line style="&st0;" x1="0" y1="173.3" x2="100" y2="173.3"/>
			<line style="&st0;" x1="0" y1="191.3" x2="100" y2="191.3"/>
    </symbol>
    <symbol id="clef">
			<path d="M67.7,131.9c-0.7-0.7-1.1-1.6-1.1-2.6s0.4-1.9,1.1-2.6s1.6-1.1,2.6-1.1s1.9,0.4,2.6,1.1s1.1,1.6,1.1,2.6s-0.4,1.9-1.1,2.6
				c-0.7,0.7-1.6,1.1-2.6,1.1S68.4,132.6,67.7,131.9 M67.7,149.9c-0.7-0.7-1.1-1.6-1.1-2.6s0.4-1.9,1.1-2.6c0.7-0.7,1.6-1.1,2.6-1.1
				s1.9,0.4,2.6,1.1c0.7,0.7,1.1,1.6,1.1,2.6s-0.4,1.9-1.1,2.6c-0.7,0.7-1.6,1.1-2.6,1.1S68.4,150.6,67.7,149.9 M43.3,119.3
				c6.2,0,11.3,1.6,15.3,4.7c3.8,3.3,5.8,7.7,5.8,13.4c0,3.8-0.8,7.3-2.2,10.4c-1.4,3.3-3.3,6.2-5.6,8.7c-2.3,2.6-5.2,5-8.5,7.3
				c-3.2,2.2-6.6,4.3-10,6c-6.9,3.5-10.8,5.3-11.5,5.3c-0.6,0-0.9-0.3-0.9-0.9c0-0.2,0.1-0.4,0.3-0.6c2.4-1.4,5.3-3.2,8.8-5.4
				c2.2-1.5,4.9-3.5,7.9-6c2.9-2.4,5.2-4.7,6.7-6.9c1.6-2.1,3.1-4.7,4.5-7.9c1.2-3.1,1.8-6.2,1.8-9.3c0-4.5-1.1-8.5-3.4-11.9
				c-2.2-3.4-5.2-5.1-8.9-5.1c-2.6,0-4.9,0.8-6.7,2.5c-2,1.7-3.5,3.9-4.4,6.5c0.9-0.4,1.7-0.6,2.5-0.6c2,0,3.7,0.7,5.1,2.1
				c1.4,1.5,2.1,3.2,2.1,5.1c0,2-0.7,3.8-2,5.4c-1.5,1.5-3.2,2.2-5.1,2.2c-2.1,0-4-0.7-5.7-2.2c-1.6-1.6-2.4-3.4-2.4-5.4
				c0-4.8,1.6-9,4.9-12.4C34.7,121,38.6,119.3,43.3,119.3"/>
    </symbol>
    <symbol id="1">
      <!--g4-->
			<line style="&st1;" x1="33" y1="83.2" x2="67.5" y2="83.2"/>
			<line style="&st1;" x1="33" y1="101.2" x2="67.5" y2="101.2"/>
			<line style="&st2;" x1="39.5" y1="68.6" x2="39.5" y2="155.3"/>
			<path d="M54.2,55.3c2.2,0,4.1,0.6,5.7,1.8c1.5,1.3,2.2,2.9,2.2,4.8c0,3.2-1.7,6.3-5,9.1c-3.4,2.8-7,4.2-10.8,4.2
				c-2.2,0-4.2-0.6-5.7-1.8c-1.5-1.3-2.2-2.9-2.2-4.8c0-3.2,1.7-6.3,5.1-9.1C46.7,56.7,50.3,55.3,54.2,55.3"/>
			<path d="M54.7,103.1c1.1,0,2.2,1.8,3.4,5.3s1.8,6.8,1.8,9.9c0,2.7-0.7,5.3-2,7.9c-1.4,2.8-3,5.2-4.8,7.3l-5.8,6.5
				c-1.8,2.1-3.4,4.5-4.8,7.2c-1.3,2.6-2,5.3-2,8h-2.2v-18h2.2c1.3-0.8,3.1-2.1,5.6-3.8c1.1-0.8,2.8-2.2,5.1-4.2
				c1.8-1.7,3.2-3.4,4.1-5.2c1-1.9,1.5-3.8,1.5-5.7c0-4.5-1.3-8.9-3.9-13.3c0,0,0-0.1,0-0.3c0-0.4,0.1-0.8,0.4-1.1
				C53.8,103.3,54.3,103.1,54.7,103.1"/>
			<line style="&st1;" x1="33" y1="65.2" x2="67.5" y2="65.2"/>
    </symbol>
    <symbol id="2">
      <!--f4-->
			<line style="&st1;" x1="33" y1="83.2" x2="67.5" y2="83.2"/>
			<line style="&st1;" x1="33" y1="101.2" x2="67.5" y2="101.2"/>
			<line style="&st2;" x1="39.5" y1="77.6" x2="39.5" y2="155.3"/>
			<path d="M54.2,64.3c2.2,0,4.1,0.6,5.7,1.8c1.5,1.3,2.2,2.9,2.2,4.8c0,3.2-1.7,6.3-5,9.1c-3.4,2.8-7,4.2-10.8,4.2
				c-2.2,0-4.2-0.6-5.7-1.8c-1.5-1.3-2.2-2.9-2.2-4.8c0-3.2,1.7-6.3,5.1-9.1C46.7,65.7,50.3,64.3,54.2,64.3"/>
			<path d="M54.8,103.1c1.1,0,2.2,1.8,3.4,5.3s1.8,6.8,1.8,9.9c0,2.7-0.7,5.3-2,7.9c-1.4,2.8-3,5.2-4.8,7.3l-5.8,6.5
				c-1.8,2.1-3.4,4.5-4.8,7.2c-1.3,2.6-2,5.3-2,8h-2.2v-18h2.2c1.3-0.8,3.1-2.1,5.6-3.8c1.1-0.8,2.8-2.2,5.1-4.2
				c1.8-1.7,3.2-3.4,4.1-5.2c1-1.9,1.5-3.8,1.5-5.7c0-4.5-1.3-8.9-3.9-13.3c0,0,0-0.1,0-0.3c0-0.4,0.1-0.8,0.4-1.1
				C53.9,103.3,54.3,103.1,54.8,103.1"/>
    </symbol>
    <symbol id="3">
      <!--e4-->
			<line style="&st1;" x1="32.8" y1="83.2" x2="67.3" y2="83.2"/>
			<line style="&st1;" x1="32.8" y1="101.2" x2="67.3" y2="101.2"/>
			<line style="&st2;" x1="39.4" y1="86.6" x2="39.4" y2="155.3"/>
			<path d="M54,73.3c2.2,0,4.2,0.6,5.7,1.8c1.5,1.3,2.2,2.9,2.2,4.8c0,3.2-1.7,6.3-5,9.1c-3.4,2.8-7,4.2-10.8,4.2
				c-2.2,0-4.1-0.6-5.7-1.8c-1.5-1.3-2.2-2.9-2.2-4.8c0-3.2,1.7-6.3,5.1-9.1C46.6,74.7,50.2,73.3,54,73.3"/>
			<path d="M54.6,103.1c1.1,0,2.2,1.8,3.4,5.3c1.2,3.5,1.8,6.8,1.8,9.9c0,2.7-0.7,5.3-2,7.9c-1.4,2.8-3,5.2-4.9,7.3l-5.8,6.5
				c-1.8,2.1-3.4,4.5-4.8,7.2c-1.3,2.6-2,5.3-2,8h-2.2v-18h2.2c1.3-0.8,3.1-2.1,5.6-3.8c1.1-0.8,2.8-2.2,5.1-4.2
				c1.8-1.7,3.2-3.4,4.2-5.2c1-1.9,1.5-3.8,1.5-5.7c0-4.5-1.3-8.9-3.9-13.3c0,0,0-0.1,0-0.3c0-0.4,0.1-0.8,0.4-1.1
				C53.7,103.3,54.1,103.1,54.6,103.1"/>
    </symbol>
    <symbol id="4">
      <!--d4-->
			<line style="&st1;" x1="33.2" y1="101.2" x2="67.7" y2="101.2"/>
			<line style="&st2;" x1="39.8" y1="95.6" x2="39.8" y2="155.3"/>
			<path d="M54.4,82.3c2.2,0,4.1,0.6,5.7,1.8c1.5,1.3,2.2,2.9,2.2,4.8c0,3.2-1.7,6.3-5,9.1c-3.4,2.8-7,4.2-10.8,4.2
				c-2.2,0-4.1-0.6-5.7-1.8c-1.5-1.3-2.2-2.9-2.2-4.8c0-3.2,1.7-6.3,5.1-9.1C46.9,83.7,50.5,82.3,54.4,82.3"/>
			<path d="M55,103.1c1.1,0,2.2,1.8,3.4,5.3c1.2,3.5,1.8,6.8,1.8,9.9c0,2.7-0.7,5.3-2,7.9c-1.4,2.8-3,5.2-4.9,7.3l-5.8,6.5
				c-1.8,2.1-3.4,4.5-4.8,7.2c-1.3,2.6-2,5.3-2,8h-2.2v-18h2.2c1.3-0.8,3.1-2.1,5.6-3.8c1.1-0.8,2.8-2.2,5.1-4.2
				c1.8-1.7,3.2-3.4,4.1-5.2c1-1.9,1.5-3.8,1.5-5.7c0-4.5-1.3-8.9-3.9-13.3c0,0,0-0.1,0-0.3c0-0.4,0.1-0.8,0.4-1.1
				C54.1,103.3,54.5,103.1,55,103.1"/>
    </symbol>
    <symbol id="5">
      <!--c4-->
			<line style="&st1;" x1="32.6" y1="100.2" x2="67.1" y2="100.2"/>
			<line style="&st2;" x1="39.1" y1="103.6" x2="39.1" y2="163.3"/>
			<path d="M53.8,90.3c2.2,0,4.1,0.6,5.7,1.8c1.5,1.3,2.2,2.9,2.2,4.8c0,3.2-1.7,6.3-5,9.1c-3.4,2.8-7,4.2-10.8,4.2
				c-2.2,0-4.2-0.6-5.7-1.8c-1.5-1.3-2.2-2.9-2.2-4.8c0-3.2,1.7-6.3,5.1-9.1C46.3,91.7,49.9,90.3,53.8,90.3"/>
			<path d="M54.4,111.1c1.1,0,2.2,1.8,3.4,5.3s1.8,6.8,1.8,9.9c0,2.7-0.7,5.3-2,7.9c-1.4,2.8-3,5.2-4.8,7.3L47,148
				c-1.8,2.1-3.4,4.5-4.8,7.2c-1.3,2.6-2,5.3-2,8H38v-18h2.2c1.3-0.8,3.1-2.1,5.6-3.8c1.1-0.8,2.8-2.2,5.1-4.2c1.8-1.7,3.2-3.4,4.1-5.2
				c1-1.9,1.5-3.8,1.5-5.7c0-4.5-1.3-8.9-3.9-13.3c0,0,0-0.1,0-0.3c0-0.4,0.1-0.8,0.4-1.1C53.5,111.3,53.9,111.1,54.4,111.1"/>
    </symbol>
    <symbol id="6">
      <!--b3-->
			<line style="&st2;" x1="39.5" y1="112.6" x2="39.5" y2="172.3"/>
			<path d="M54.2,99.3c2.2,0,4.2,0.6,5.7,1.8c1.5,1.3,2.2,2.9,2.2,4.8c0,3.2-1.7,6.3-5,9.1c-3.4,2.8-7,4.2-10.8,4.2
				c-2.2,0-4.1-0.6-5.7-1.8c-1.5-1.3-2.2-2.9-2.2-4.8c0-3.2,1.7-6.3,5.1-9.1C46.7,100.7,50.3,99.3,54.2,99.3"/>
			<path d="M54.7,120.1c1.1,0,2.2,1.8,3.4,5.3c1.2,3.5,1.8,6.8,1.8,9.9c0,2.7-0.7,5.3-2,7.9c-1.4,2.8-3,5.2-4.9,7.3l-5.8,6.5
				c-1.8,2.1-3.4,4.5-4.8,7.2c-1.3,2.6-2,5.3-2,8h-2.2v-18h2.2c1.3-0.8,3.1-2.1,5.6-3.8c1.1-0.8,2.8-2.2,5.1-4.2
				c1.8-1.7,3.2-3.4,4.1-5.2c1-1.9,1.5-3.8,1.5-5.7c0-4.5-1.3-8.9-3.9-13.3c0,0,0-0.1,0-0.3c0-0.4,0.1-0.8,0.4-1.1
				C53.8,120.3,54.3,120.1,54.7,120.1"/>
    </symbol>
    <symbol id="7">
      <!--a3-->
			<line style="&st2;" x1="39.5" y1="122.6" x2="39.5" y2="182.3"/>
			<path d="M54.2,109.3c2.2,0,4.2,0.6,5.7,1.8c1.5,1.3,2.2,2.9,2.2,4.8c0,3.2-1.7,6.3-5,9.1c-3.4,2.8-7,4.2-10.8,4.2
				c-2.2,0-4.1-0.6-5.7-1.8c-1.5-1.3-2.2-2.9-2.2-4.8c0-3.2,1.7-6.3,5.1-9.1C46.7,110.7,50.3,109.3,54.2,109.3"/>
			<path d="M54.7,130.2c1.1,0,2.2,1.8,3.4,5.3s1.8,6.8,1.8,9.9c0,2.7-0.7,5.3-2,7.9c-1.4,2.8-3,5.2-4.9,7.3l-5.8,6.5
				c-1.8,2.1-3.4,4.5-4.8,7.2c-1.3,2.6-2,5.3-2,8h-2.2v-18h2.2c1.3-0.8,3.1-2.1,5.6-3.8c1.1-0.8,2.8-2.2,5.1-4.2
				c1.8-1.7,3.2-3.4,4.1-5.2c1-1.9,1.5-3.8,1.5-5.7c0-4.5-1.3-8.9-3.9-13.3c0,0,0-0.1,0-0.3c0-0.4,0.1-0.8,0.4-1.1
				C53.8,130.4,54.3,130.2,54.7,130.2"/>
    </symbol>
    <symbol id="8">
      <!--g3-->
			<line style="&st2;" x1="39.5" y1="131.7" x2="39.5" y2="191.3"/>
			<path d="M54.2,118.3c2.2,0,4.2,0.6,5.7,1.8c1.5,1.3,2.2,2.9,2.2,4.8c0,3.2-1.7,6.3-5,9.1c-3.4,2.8-7,4.2-10.8,4.2
				c-2.2,0-4.1-0.6-5.7-1.8c-1.5-1.3-2.2-2.9-2.2-4.8c0-3.2,1.7-6.3,5.1-9.1C46.7,119.7,50.3,118.3,54.2,118.3"/>
			<path d="M54.7,139.2c1.1,0,2.2,1.8,3.4,5.3s1.8,6.8,1.8,9.9c0,2.7-0.7,5.3-2,7.9c-1.4,2.8-3,5.2-4.9,7.3l-5.8,6.5
				c-1.8,2.1-3.4,4.5-4.8,7.2c-1.3,2.6-2,5.3-2,8h-2.2v-18h2.2c1.3-0.8,3.1-2.1,5.6-3.8c1.1-0.8,2.8-2.2,5.1-4.2
				c1.8-1.7,3.2-3.4,4.1-5.2c1-1.9,1.5-3.8,1.5-5.7c0-4.5-1.3-8.9-3.9-13.3c0,0,0-0.1,0-0.3c0-0.4,0.1-0.8,0.4-1.1
				C53.8,139.4,54.3,139.2,54.7,139.2"/>
    </symbol>
    <symbol id="9">
      <!--f3-->
			<line style="&st2;" x1="39.5" y1="140.7" x2="39.5" y2="200.3"/>
			<path d="M54.2,127.4c2.2,0,4.2,0.6,5.7,1.8c1.5,1.3,2.2,2.9,2.2,4.8c0,3.2-1.7,6.3-5,9.1c-3.4,2.8-7,4.2-10.8,4.2
				c-2.2,0-4.1-0.6-5.7-1.8c-1.5-1.3-2.2-2.9-2.2-4.8c0-3.2,1.7-6.3,5.1-9.1C46.7,128.8,50.3,127.4,54.2,127.4"/>
			<path d="M54.7,148.2c1.1,0,2.2,1.8,3.4,5.3s1.8,6.8,1.8,9.9c0,2.7-0.7,5.3-2,7.9c-1.4,2.8-3,5.2-4.9,7.3l-5.8,6.5
				c-1.8,2.1-3.4,4.5-4.8,7.2c-1.3,2.6-2,5.3-2,8h-2.2v-18h2.2c1.3-0.8,3.1-2.1,5.6-3.8c1.1-0.8,2.8-2.2,5.1-4.2
				c1.8-1.7,3.2-3.4,4.1-5.2c1-1.9,1.5-3.8,1.5-5.7c0-4.5-1.3-8.9-3.9-13.3c0,0,0-0.1,0-0.3c0-0.4,0.1-0.8,0.4-1.1
				C53.8,148.4,54.3,148.2,54.7,148.2"/>
    </symbol>
    <symbol id="10">
      <!--e3-->
			<line style="&st2;" x1="39.5" y1="149.7" x2="39.5" y2="209.3"/>
			<path d="M54.2,136.4c2.2,0,4.2,0.6,5.7,1.8c1.5,1.3,2.2,2.9,2.2,4.8c0,3.2-1.7,6.3-5,9.1c-3.4,2.8-7,4.2-10.8,4.2
				c-2.2,0-4.1-0.6-5.7-1.8c-1.5-1.3-2.2-2.9-2.2-4.8c0-3.2,1.7-6.3,5.1-9.1C46.7,137.8,50.3,136.4,54.2,136.4"/>
			<path d="M54.7,157.2c1.1,0,2.2,1.8,3.4,5.3c1.2,3.5,1.8,6.8,1.8,9.9c0,2.7-0.7,5.3-2,7.9c-1.4,2.8-3,5.2-4.9,7.3l-5.8,6.5
				c-1.8,2.1-3.4,4.5-4.8,7.2c-1.3,2.6-2,5.3-2,8h-2.2v-18h2.2c1.3-0.8,3.1-2.1,5.6-3.8c1.1-0.8,2.8-2.2,5.1-4.2
				c1.8-1.7,3.2-3.4,4.1-5.2c1-1.9,1.5-3.8,1.5-5.7c0-4.5-1.3-8.9-3.9-13.3c0,0,0-0.1,0-0.3c0-0.4,0.1-0.8,0.4-1.1
				C53.8,157.4,54.3,157.2,54.7,157.2"/>
    </symbol>
    <symbol id="11">
      <!--d3-->
			<line style="&st2;" x1="39.5" y1="158.7" x2="39.5" y2="218.3"/>
			<path d="M54.2,145.4c2.2,0,4.2,0.6,5.7,1.8c1.5,1.3,2.2,2.9,2.2,4.8c0,3.2-1.7,6.3-5,9.1c-3.4,2.8-7,4.2-10.8,4.2
				c-2.2,0-4.1-0.6-5.7-1.8c-1.5-1.3-2.2-2.9-2.2-4.8c0-3.2,1.7-6.3,5.1-9.1C46.7,146.8,50.3,145.4,54.2,145.4"/>
			<path d="M54.7,166.2c1.1,0,2.2,1.8,3.4,5.3c1.2,3.5,1.8,6.8,1.8,9.9c0,2.7-0.7,5.3-2,7.9c-1.4,2.8-3,5.2-4.9,7.3l-5.8,6.5
				c-1.8,2.1-3.4,4.5-4.8,7.2c-1.3,2.6-2,5.3-2,8h-2.2v-18h2.2c1.3-0.8,3.1-2.1,5.6-3.8c1.1-0.8,2.8-2.2,5.1-4.2
				c1.8-1.7,3.2-3.4,4.1-5.2c1-1.9,1.5-3.8,1.5-5.7c0-4.5-1.3-8.9-3.9-13.3c0,0,0-0.1,0-0.3c0-0.4,0.1-0.8,0.4-1.1
				C53.8,166.4,54.3,166.2,54.7,166.2"/>
    </symbol>
    <symbol id="12">
      <!--c3-->
			<line style="&st2;" x1="53.6" y1="161.9" x2="53.6" y2="106.7"/>
			<path d="M46.9,155.4c2.2,0,4.2,0.6,5.7,1.8c1.5,1.3,2.2,2.9,2.2,4.8c0,3.2-1.7,6.3-5,9.1c-3.4,2.8-7,4.2-10.8,4.2
				c-2.2,0-4.1-0.6-5.7-1.8c-1.5-1.3-2.2-2.9-2.2-4.8c0-3.2,1.7-6.3,5.1-9.1C39.5,156.8,43,155.4,46.9,155.4"/>
			<path d="M52.5,124.7v-18h2.2c0,2.7,0.5,5.3,1.5,8c1.1,2.9,2.4,5.4,3.7,7.6c1,1.5,2.5,3.9,4.4,7.1c1.5,2.4,2.8,5,3.8,7.7
				s1.5,5.3,1.5,8c0,4.9-1,9.8-3,14.9c-0.3,0.6-0.8,0.8-1.3,0.8s-0.9-0.2-1.3-0.6c-0.3-0.3-0.4-0.6-0.4-1.1v-0.3c2-4.6,3-9.2,3-13.8
				c0-2.3-0.7-4.9-2.1-7.6c-1.4-2.8-2.8-5-4.3-6.6c-1.6-1.9-3.5-4-5.6-6.2L52.5,124.7"/>
    </symbol>
    <symbol id="13">
      <!--b2-->
			<line style="&st2;" x1="53.6" y1="169.9" x2="53.6" y2="114.7"/>
			<path d="M46.9,163.4c2.2,0,4.2,0.6,5.7,1.8c1.5,1.3,2.2,2.9,2.2,4.8c0,3.2-1.7,6.3-5,9.1c-3.4,2.8-7,4.2-10.8,4.2
				c-2.2,0-4.1-0.6-5.7-1.8c-1.5-1.3-2.2-2.9-2.2-4.8c0-3.2,1.7-6.3,5.1-9.1C39.5,164.8,43,163.4,46.9,163.4"/>
			<path d="M52.5,132.8v-18h2.2c0,2.7,0.5,5.3,1.5,8c1.1,2.9,2.4,5.4,3.7,7.6c1,1.5,2.5,3.9,4.4,7.1c1.5,2.4,2.8,5,3.8,7.7
				s1.5,5.3,1.5,8c0,4.9-1,9.8-3,14.9c-0.3,0.6-0.8,0.8-1.3,0.8s-0.9-0.2-1.3-0.6c-0.3-0.3-0.4-0.6-0.4-1.1v-0.3c2-4.6,3-9.2,3-13.8
				c0-2.3-0.7-4.9-2.1-7.6c-1.4-2.8-2.8-5-4.3-6.6c-1.6-1.9-3.5-4-5.6-6.2L52.5,132.8"/>
    </symbol>
    <symbol id="14">
      <!--a2-->
			<line style="&st2;" x1="53.6" y1="179.9" x2="53.6" y2="124.7"/>
			<path d="M46.9,173.4c2.2,0,4.2,0.6,5.7,1.8c1.5,1.3,2.2,2.9,2.2,4.8c0,3.2-1.7,6.3-5,9.1c-3.4,2.8-7,4.2-10.8,4.2
				c-2.2,0-4.1-0.6-5.7-1.8c-1.5-1.3-2.2-2.9-2.2-4.8c0-3.2,1.7-6.3,5.1-9.1C39.5,174.8,43,173.4,46.9,173.4"/>
			<path d="M52.5,142.8v-18h2.2c0,2.7,0.5,5.3,1.5,8c1.1,2.9,2.4,5.4,3.7,7.6c1,1.5,2.5,3.9,4.4,7.1c1.5,2.4,2.8,5,3.8,7.7
				s1.5,5.3,1.5,8c0,4.9-1,9.8-3,14.9c-0.3,0.6-0.8,0.8-1.3,0.8s-0.9-0.2-1.3-0.6c-0.3-0.3-0.4-0.6-0.4-1.1v-0.3c2-4.6,3-9.2,3-13.8
				c0-2.3-0.7-4.9-2.1-7.6c-1.4-2.8-2.8-5-4.3-6.6c-1.6-1.9-3.5-4-5.6-6.2h-2.1"/>
    </symbol>
    <symbol id="15">
      <!--g2-->
			<line style="&st2;" x1="53.6" y1="187.9" x2="53.6" y2="132.8"/>
			<path d="M46.9,181.4c2.2,0,4.2,0.6,5.7,1.8c1.5,1.3,2.2,2.9,2.2,4.8c0,3.2-1.7,6.3-5,9.1c-3.4,2.8-7,4.2-10.8,4.2
				c-2.2,0-4.1-0.6-5.7-1.8c-1.5-1.3-2.2-2.9-2.2-4.8c0-3.2,1.7-6.3,5.1-9.1C39.5,182.8,43,181.4,46.9,181.4"/>
			<path d="M52.5,150.8v-18h2.2c0,2.7,0.5,5.3,1.5,8c1.1,2.9,2.4,5.4,3.7,7.6c1,1.5,2.5,3.9,4.4,7.1c1.5,2.4,2.8,5,3.8,7.7
				s1.5,5.3,1.5,8c0,4.9-1,9.8-3,14.9c-0.3,0.6-0.8,0.8-1.3,0.8s-0.9-0.2-1.3-0.6c-0.3-0.3-0.4-0.6-0.4-1.1v-0.3c2-4.6,3-9.2,3-13.8
				c0-2.3-0.7-4.9-2.1-7.6c-1.4-2.8-2.8-5-4.3-6.6c-1.6-1.9-3.5-4-5.6-6.2h-2.1"/>
    </symbol>
    <symbol id="16">
      <!--f2-->
			<line style="&st2;" x1="53.6" y1="197.9" x2="53.6" y2="142.8"/>
			<path d="M46.9,191.4c2.2,0,4.2,0.6,5.7,1.8c1.5,1.3,2.2,2.9,2.2,4.8c0,3.2-1.7,6.3-5,9.1c-3.4,2.8-7,4.2-10.8,4.2
				c-2.2,0-4.1-0.6-5.7-1.8c-1.5-1.3-2.2-2.9-2.2-4.8c0-3.2,1.7-6.3,5.1-9.1C39.5,192.8,43,191.4,46.9,191.4"/>
			<path d="M52.5,160.8v-18h2.2c0,2.7,0.5,5.3,1.5,8c1.1,2.9,2.4,5.4,3.7,7.6c1,1.5,2.5,3.9,4.4,7.1c1.5,2.4,2.8,5,3.8,7.7
				s1.5,5.3,1.5,8c0,4.9-1,9.8-3,14.9c-0.3,0.6-0.8,0.8-1.3,0.8s-0.9-0.2-1.3-0.6c-0.3-0.3-0.4-0.6-0.4-1.1v-0.3c2-4.6,3-9.2,3-13.8
				c0-2.3-0.7-4.9-2.1-7.6c-1.4-2.8-2.8-5-4.3-6.6c-1.6-1.9-3.5-4-5.6-6.2h-2.1"/>
    </symbol>
    <symbol id="17">
      <!--e2-->
			<line style="&st1;" x1="28.1" y1="209.2" x2="62.6" y2="209.2"/>
			<line style="&st2;" x1="56.1" y1="205.8" x2="56.1" y2="146.2"/>
			<path d="M49.4,199.3c2.2,0,4.1,0.6,5.7,1.8c1.5,1.3,2.2,2.9,2.2,4.8c0,3.2-1.7,6.3-5,9.1c-3.4,2.8-7,4.2-10.8,4.2
				c-2.2,0-4.1-0.6-5.7-1.8c-1.5-1.3-2.2-2.9-2.2-4.8c0-3.2,1.7-6.3,5.1-9.1C41.9,200.7,45.5,199.3,49.4,199.3"/>
			<path d="M54.9,164.2v-18h2.2c0,2.7,0.5,5.3,1.5,8c1.1,2.9,2.4,5.4,3.7,7.6c1,1.5,2.5,3.9,4.4,7.1c1.5,2.4,2.8,5,3.8,7.7
				s1.5,5.3,1.5,8c0,4.9-1,9.8-3,14.9c-0.3,0.6-0.8,0.8-1.3,0.8s-0.9-0.2-1.3-0.6c-0.3-0.3-0.4-0.6-0.4-1.1v-0.3c2-4.6,3-9.2,3-13.8
				c0-2.3-0.7-4.9-2.1-7.6c-1.4-2.8-2.8-5-4.3-6.6c-1.6-1.9-3.5-4-5.6-6.2h-2.1"/>
    </symbol>
    <symbol id="18">
      <!--d2-->
			<line style="&st1;" x1="27.6" y1="209.2" x2="62.1" y2="209.2"/>
			<line style="&st2;" x1="55.6" y1="214.8" x2="55.6" y2="155.2"/>
			<path d="M48.9,208.3c2.2,0,4.2,0.6,5.7,1.8c1.5,1.3,2.2,2.9,2.2,4.8c0,3.2-1.7,6.3-5,9.1c-3.4,2.8-7,4.2-10.8,4.2
				c-2.2,0-4.1-0.6-5.7-1.8c-1.5-1.3-2.2-2.9-2.2-4.8c0-3.2,1.7-6.3,5.1-9.1C41.4,209.7,45,208.3,48.9,208.3"/>
			<path d="M54.4,173.2v-18h2.2c0,2.7,0.5,5.3,1.5,8c1.1,2.9,2.4,5.4,3.7,7.6c1,1.5,2.5,3.9,4.4,7.1c1.5,2.4,2.8,5,3.8,7.7
				s1.5,5.3,1.5,8c0,4.9-1,9.8-3,14.9c-0.3,0.6-0.8,0.8-1.3,0.8s-0.9-0.2-1.3-0.6c-0.3-0.3-0.4-0.6-0.4-1.1v-0.3c2-4.6,3-9.2,3-13.8
				c0-2.3-0.7-4.9-2.1-7.6c-1.4-2.8-2.8-5-4.3-6.6c-1.6-1.9-3.5-4-5.6-6.2h-2.1"/>
    </symbol>
    <symbol id="19">
      <!--c2-->
			<line style="&st1;" x1="27.6" y1="209.2" x2="62.1" y2="209.2"/>
			<line style="&st1;" x1="27.6" y1="227.2" x2="62.1" y2="227.2"/>
			<line style="&st2;" x1="55.6" y1="223.8" x2="55.6" y2="155.2"/>
			<path d="M48.9,217.3c2.3,0,4.1,0.6,5.7,1.8c1.5,1.3,2.2,2.9,2.2,4.8c0,3.2-1.7,6.3-5,9.1c-3.4,2.8-7,4.2-10.8,4.2
				c-2.3,0-4.2-0.6-5.7-1.8c-1.5-1.3-2.2-2.9-2.2-4.8c0-3.2,1.7-6.3,5.1-9.1C41.4,218.7,45,217.3,48.9,217.3"/>
			<path d="M54.4,173.2v-18h2.2c0,2.7,0.5,5.3,1.5,8c1.1,2.9,2.4,5.4,3.7,7.6c1,1.5,2.5,3.9,4.4,7.1c1.5,2.4,2.8,5,3.8,7.7
				s1.5,5.3,1.5,8c0,4.9-1,9.8-3,14.9c-0.3,0.6-0.8,0.8-1.3,0.8s-0.9-0.2-1.3-0.6c-0.3-0.3-0.4-0.6-0.4-1.1v-0.3c2-4.6,3-9.2,3-13.8
				c0-2.3-0.7-4.9-2.1-7.6c-1.4-2.8-2.8-5-4.3-6.6c-1.6-1.9-3.5-4-5.6-6.2h-2.1"/>
    </symbol>
    <symbol id="20">
      <!--b1-->
			<line style="&st1;" x1="28.1" y1="209.2" x2="62.6" y2="209.2"/>
			<line style="&st1;" x1="28.1" y1="227.2" x2="62.6" y2="227.2"/>
			<line style="&st2;" x1="56.1" y1="232.8" x2="56.1" y2="155.2"/>
			<path d="M49.4,226.3c2.2,0,4.1,0.6,5.7,1.8c1.5,1.3,2.2,2.9,2.2,4.8c0,3.2-1.7,6.3-5,9.1c-3.4,2.8-7,4.2-10.8,4.2
				c-2.2,0-4.1-0.6-5.7-1.8c-1.5-1.3-2.2-2.9-2.2-4.8c0-3.2,1.7-6.3,5.1-9.1C41.9,227.7,45.5,226.3,49.4,226.3"/>
			<path d="M54.9,173.2v-18h2.2c0,2.7,0.5,5.3,1.5,8c1.1,2.9,2.4,5.4,3.7,7.6c1,1.5,2.5,3.9,4.4,7.1c1.5,2.4,2.8,5,3.8,7.7
				s1.5,5.3,1.5,8c0,4.9-1,9.8-3,14.9c-0.3,0.6-0.8,0.8-1.3,0.8s-0.9-0.2-1.3-0.6c-0.3-0.3-0.4-0.6-0.4-1.1v-0.3c2-4.6,3-9.2,3-13.8
				c0-2.3-0.7-4.9-2.1-7.6c-1.4-2.8-2.8-5-4.3-6.6c-1.6-1.9-3.5-4-5.6-6.2h-2.1"/>
    </symbol>
    <symbol id="21">
      <!--a1-->
			<line style="&st1;" x1="27.6" y1="209.2" x2="62.1" y2="209.2"/>
			<line style="&st1;" x1="27.6" y1="227.2" x2="62.1" y2="227.2"/>
			<line style="&st1;" x1="27.6" y1="245.2" x2="62.1" y2="245.2"/>
			<line style="&st2;" x1="55.6" y1="241.8" x2="55.6" y2="155.2"/>
			<path d="M48.9,235.3c2.2,0,4.2,0.6,5.7,1.8c1.5,1.3,2.2,2.9,2.2,4.8c0,3.2-1.7,6.3-5,9.1c-3.4,2.8-7,4.2-10.8,4.2
				c-2.2,0-4.1-0.6-5.7-1.8c-1.5-1.3-2.2-2.9-2.2-4.8c0-3.2,1.7-6.3,5.1-9.1C41.4,236.7,45,235.3,48.9,235.3"/>
			<path d="M54.4,173.2v-18h2.3c0,2.7,0.5,5.3,1.5,8c1.1,2.9,2.4,5.4,3.7,7.6c1,1.5,2.5,3.9,4.4,7.1c1.5,2.4,2.8,5,3.8,7.7
				s1.5,5.3,1.5,8c0,4.9-1,9.8-3,14.9c-0.3,0.6-0.8,0.8-1.3,0.8s-0.9-0.2-1.3-0.6c-0.3-0.3-0.4-0.6-0.4-1.1v-0.3c2-4.6,3-9.2,3-13.8
				c0-2.3-0.7-4.9-2.1-7.6c-1.4-2.8-2.8-5-4.3-6.6c-1.6-1.9-3.5-4-5.6-6.2h-2.2"/>
    </symbol>
    <symbol id="22">
      <!--g1-->
			<line style="&st1;" x1="28.1" y1="209.2" x2="62.6" y2="209.2"/>
			<line style="&st1;" x1="28.1" y1="227.2" x2="62.6" y2="227.2"/>
			<line style="&st1;" x1="28.1" y1="245.2" x2="62.6" y2="245.2"/>
			<line style="&st2;" x1="56.1" y1="250.8" x2="56.1" y2="155.2"/>
			<path d="M49.3,244.3c2.3,0,4.1,0.6,5.7,1.8c1.5,1.3,2.2,2.9,2.2,4.8c0,3.2-1.7,6.3-5,9.1c-3.4,2.8-7,4.2-10.8,4.2
				c-2.3,0-4.2-0.6-5.7-1.8c-1.5-1.3-2.2-2.9-2.2-4.8c0-3.2,1.7-6.3,5.1-9.1C41.9,245.7,45.5,244.3,49.3,244.3"/>
			<path d="M54.9,173.2v-18h2.2c0,2.7,0.5,5.3,1.5,8c1.1,2.9,2.4,5.4,3.7,7.6c1,1.5,2.5,3.9,4.4,7.1c1.5,2.4,2.8,5,3.8,7.7
				s1.5,5.3,1.5,8c0,4.9-1,9.8-3,14.9c-0.3,0.6-0.8,0.8-1.3,0.8s-0.9-0.2-1.3-0.6c-0.3-0.3-0.4-0.6-0.4-1.1v-0.3c2-4.6,3-9.2,3-13.8
				c0-2.3-0.7-4.9-2.1-7.6c-1.4-2.8-2.8-5-4.3-6.6c-1.6-1.9-3.5-4-5.6-6.2h-2.1"/>
    </symbol>
    <symbol id="23">
      <!--f1-->
			<line style="&st1;" x1="28.1" y1="209.2" x2="62.6" y2="209.2"/>
			<line style="&st1;" x1="28.1" y1="227.2" x2="62.6" y2="227.2"/>
			<line style="&st1;" x1="28.1" y1="245.2" x2="62.6" y2="245.2"/>
			<line style="&st1;" x1="28.1" y1="263.2" x2="62.6" y2="263.2"/>
			<line style="&st2;" x1="56.1" y1="259.8" x2="56.1" y2="155.2"/>
			<path d="M49.4,253.3c2.3,0,4.2,0.6,5.7,1.8c1.5,1.3,2.2,2.9,2.2,4.8c0,3.2-1.7,6.3-5,9.1c-3.4,2.8-7,4.2-10.8,4.2
				c-2.2,0-4.1-0.6-5.7-1.8c-1.5-1.3-2.2-2.9-2.2-4.8c0-3.2,1.7-6.3,5.1-9.1C41.9,254.7,45.5,253.3,49.4,253.3"/>
			<path d="M54.9,173.2v-18h2.2c0,2.7,0.5,5.3,1.5,8c1.1,2.9,2.4,5.4,3.7,7.6c1,1.5,2.5,3.9,4.4,7.1c1.5,2.4,2.8,5,3.8,7.7
				s1.5,5.3,1.5,8c0,4.9-1,9.8-3,14.9c-0.3,0.6-0.8,0.8-1.3,0.8s-0.9-0.2-1.3-0.6c-0.3-0.3-0.4-0.6-0.4-1.1v-0.3c2-4.6,3-9.2,3-13.8
				c0-2.3-0.7-4.9-2.1-7.6c-1.4-2.8-2.8-5-4.3-6.6c-1.6-1.9-3.5-4-5.6-6.2h-2.1"/>
    </symbol>
    <symbol id="24">
      <!--e1-->
			<line style="&st1;" x1="27.6" y1="209.2" x2="62.1" y2="209.2"/>
			<line style="&st1;" x1="27.6" y1="227.2" x2="62.1" y2="227.2"/>
			<line style="&st1;" x1="27.6" y1="245.2" x2="62.1" y2="245.2"/>
			<line style="&st1;" x1="27.6" y1="263.2" x2="62.1" y2="263.2"/>
			<line style="&st2;" x1="55.6" y1="268.9" x2="55.6" y2="155.2"/>
			<path d="M48.8,262.3c2.2,0,4.1,0.6,5.7,1.8c1.5,1.3,2.2,2.9,2.2,4.8c0,3.2-1.7,6.3-5,9.1c-3.4,2.8-7,4.2-10.8,4.2
				c-2.3,0-4.1-0.6-5.7-1.8c-1.5-1.3-2.2-2.9-2.2-4.8c0-3.2,1.7-6.3,5.1-9.1C41.4,263.7,45,262.3,48.8,262.3"/>
			<path d="M54.4,173.2v-18h2.2c0,2.7,0.5,5.3,1.5,8c1.1,2.9,2.4,5.4,3.7,7.6c1,1.5,2.5,3.9,4.4,7.1c1.5,2.4,2.8,5,3.8,7.7
				s1.5,5.3,1.5,8c0,4.9-1,9.8-3,14.9c-0.3,0.6-0.8,0.8-1.3,0.8s-0.9-0.2-1.3-0.6c-0.3-0.3-0.4-0.6-0.4-1.1v-0.3c2-4.6,3-9.2,3-13.8
				c0-2.3-0.7-4.9-2.1-7.6c-1.4-2.8-2.8-5-4.3-6.6c-1.6-1.9-3.5-4-5.6-6.2h-2.1"/>
    </symbol>
    <symbol id="25">
      <!--d1-->
			<line style="&st1;" x1="28.1" y1="209.2" x2="62.6" y2="209.2"/>
			<line style="&st1;" x1="28.1" y1="227.2" x2="62.6" y2="227.2"/>
			<line style="&st1;" x1="28.1" y1="245.2" x2="62.6" y2="245.2"/>
			<line style="&st1;" x1="28.1" y1="263.2" x2="62.6" y2="263.2"/>
			<line style="&st1;" x1="28.1" y1="281.3" x2="62.6" y2="281.3"/>
			<line style="&st2;" x1="56" y1="277.9" x2="56" y2="155.2"/>
			<path d="M49.3,271.4c2.2,0,4.1,0.6,5.7,1.8c1.5,1.3,2.2,2.9,2.2,4.8c0,3.2-1.7,6.3-5,9.1c-3.4,2.8-7,4.2-10.8,4.2
				c-2.2,0-4.2-0.6-5.7-1.8c-1.5-1.3-2.2-2.9-2.2-4.8c0-3.2,1.7-6.3,5.1-9.1C41.9,272.8,45.4,271.4,49.3,271.4"/>
			<path d="M54.9,173.2v-18h2.2c0,2.7,0.5,5.3,1.5,8c1.1,2.9,2.4,5.4,3.7,7.6c1,1.5,2.5,3.9,4.4,7.1c1.5,2.4,2.8,5,3.8,7.7
				s1.5,5.3,1.5,8c0,4.9-1,9.8-3,14.9c-0.3,0.6-0.8,0.8-1.3,0.8s-0.9-0.2-1.3-0.6c-0.3-0.3-0.4-0.6-0.4-1.1v-0.3c2-4.6,3-9.2,3-13.8
				c0-2.3-0.7-4.9-2.1-7.6c-1.4-2.8-2.8-5-4.3-6.6c-1.6-1.9-3.5-4-5.6-6.2h-2.1"/>
    </symbol>
    <symbol id="26">
      <!--c1-->
			<line style="&st1;" x1="28.6" y1="209.2" x2="63.1" y2="209.2"/>
			<line style="&st1;" x1="28.6" y1="227.2" x2="63.1" y2="227.2"/>
			<line style="&st1;" x1="28.6" y1="245.2" x2="63.1" y2="245.2"/>
			<line style="&st1;" x1="28.6" y1="263.2" x2="63.1" y2="263.2"/>
			<line style="&st1;" x1="28.6" y1="281.3" x2="63.1" y2="281.3"/>
			<line style="&st2;" x1="56.5" y1="286.9" x2="56.5" y2="155.2"/>
			<path d="M49.8,280.4c2.3,0,4.2,0.6,5.7,1.8c1.5,1.3,2.2,2.9,2.2,4.8c0,3.2-1.7,6.3-5,9.1c-3.4,2.8-7,4.2-10.8,4.2
				c-2.2,0-4.1-0.6-5.7-1.8c-1.5-1.3-2.2-2.9-2.2-4.8c0-3.2,1.7-6.3,5.1-9.1C42.4,281.8,45.9,280.4,49.8,280.4"/>
			<path d="M55.4,173.2v-18h2.2c0,2.7,0.5,5.3,1.5,8c1.1,2.9,2.4,5.4,3.7,7.6c1,1.5,2.5,3.9,4.4,7.1c1.5,2.4,2.8,5,3.8,7.7
				s1.5,5.3,1.5,8c0,4.9-1,9.8-3,14.9c-0.3,0.6-0.8,0.8-1.3,0.8s-0.9-0.2-1.3-0.6c-0.3-0.3-0.4-0.6-0.4-1.1v-0.3c2-4.6,3-9.2,3-13.8
				c0-2.3-0.7-4.9-2.1-7.6c-1.4-2.8-2.8-5-4.3-6.6c-1.6-1.9-3.5-4-5.6-6.2h-2.1"/>
    </symbol>
    <symbol id="27">
      <!--b0-->
			<line style="&st1;" x1="28.1" y1="209.2" x2="62.6" y2="209.2"/>
			<line style="&st1;" x1="28.1" y1="227.2" x2="62.6" y2="227.2"/>
			<line style="&st1;" x1="28.1" y1="245.2" x2="62.6" y2="245.2"/>
			<line style="&st1;" x1="28.1" y1="263.2" x2="62.6" y2="263.2"/>
			<line style="&st1;" x1="28.1" y1="281.3" x2="62.6" y2="281.3"/>
			<line style="&st1;" x1="28.1" y1="299.3" x2="62.6" y2="299.3"/>
			<line style="&st2;" x1="56.1" y1="295.9" x2="56.1" y2="155.2"/>
			<path d="M49.3,289.4c2.3,0,4.1,0.6,5.7,1.8c1.5,1.3,2.2,2.9,2.2,4.8c0,3.2-1.7,6.3-5,9.1c-3.4,2.8-7,4.2-10.8,4.2
				c-2.2,0-4.2-0.6-5.7-1.8c-1.5-1.3-2.2-2.9-2.2-4.8c0-3.2,1.7-6.3,5.1-9.1C41.9,290.8,45.5,289.4,49.3,289.4"/>
			<path d="M54.9,173.2v-18h2.3c0,2.7,0.5,5.3,1.5,8c1.1,2.9,2.4,5.4,3.7,7.6c1,1.5,2.5,3.9,4.4,7.1c1.5,2.4,2.8,5,3.8,7.7
				s1.5,5.3,1.5,8c0,4.9-1,9.8-3,14.9c-0.3,0.6-0.8,0.8-1.3,0.8s-0.9-0.2-1.3-0.6c-0.3-0.3-0.4-0.6-0.4-1.1v-0.3c2-4.6,3-9.2,3-13.8
				c0-2.3-0.7-4.9-2.1-7.6c-1.4-2.8-2.8-5-4.3-6.6c-1.6-1.9-3.5-4-5.6-6.2h-2.2"/>
    </symbol>
    <symbol id="28">
      <!--a0-->
			<line style="&st1;" x1="29.1" y1="209.2" x2="63.6" y2="209.2"/>
			<line style="&st1;" x1="29.1" y1="227.2" x2="63.6" y2="227.2"/>
			<line style="&st1;" x1="29.1" y1="245.2" x2="63.6" y2="245.2"/>
			<line style="&st1;" x1="29.1" y1="263.2" x2="63.6" y2="263.2"/>
			<line style="&st1;" x1="29.1" y1="281.3" x2="63.6" y2="281.3"/>
			<line style="&st1;" x1="29.1" y1="299.3" x2="63.6" y2="299.3"/>
			<line style="&st2;" x1="57" y1="304.9" x2="57" y2="155.2"/>
			<path d="M50.3,298.4c2.2,0,4.1,0.6,5.7,1.8c1.5,1.3,2.2,2.9,2.2,4.8c0,3.2-1.7,6.3-5,9.1c-3.4,2.8-7,4.2-10.8,4.2
				c-2.2,0-4.1-0.6-5.7-1.8c-1.5-1.3-2.2-2.9-2.2-4.8c0-3.2,1.7-6.3,5.1-9.1C42.9,299.8,46.4,298.4,50.3,298.4"/>
			<path d="M55.9,173.2v-18h2.2c0,2.7,0.5,5.3,1.5,8c1.1,2.9,2.4,5.4,3.7,7.6c1,1.5,2.5,3.9,4.4,7.1c1.5,2.4,2.8,5,3.8,7.7
				s1.5,5.3,1.5,8c0,4.9-1,9.8-3,14.9c-0.3,0.6-0.8,0.8-1.3,0.8s-0.9-0.2-1.3-0.6c-0.3-0.3-0.4-0.6-0.4-1.1v-0.3c2-4.6,3-9.2,3-13.8
				c0-2.3-0.7-4.9-2.1-7.6c-1.4-2.8-2.8-5-4.3-6.6c-1.6-1.9-3.5-4-5.6-6.2h-2.1"/>
    </symbol>
  </defs>
</svg>
