<?xml version="1.0" encoding="utf-8"?>
<!-- Generator: Adobe Illustrator 21.1.0, SVG Export Plug-In . SVG Version: 6.00 Build 0)  -->
<!DOCTYPE svg PUBLIC "-//W3C//DTD SVG 1.1//EN" "http://www.w3.org/Graphics/SVG/1.1/DTD/svg11.dtd" [
<!ENTITY st0 "fill:none;stroke:#000000;stroke-width:0.4;stroke-linejoin:bevel;">
<!ENTITY st1 "fill:none;stroke:#000000;stroke-width:0.8;stroke-linecap:square;stroke-linejoin:bevel;">
<!ENTITY st2 "fill:none;stroke:#000000;stroke-width:0.65;stroke-linecap:round;stroke-linejoin:bevel;">
]>
<svg xmlns="http://www.w3.org/2000/svg" xmlns:xlink="http://www.w3.org/1999/xlink" x="0px" y="0px"
	viewBox="0 0 100 400" style="enable-background:new 0 0 100 400;" xml:space="preserve">
	<defs>
		<symbol id="staff">
			<line style="&st0;" x1="0" y1="200.7" x2="100" y2="200.7"/>
			<line style="&st0;" x1="0" y1="218.7" x2="100" y2="218.7"/>
			<line style="&st0;" x1="0" y1="236.7" x2="100" y2="236.7"/>
			<line style="&st0;" x1="0" y1="254.7" x2="100" y2="254.7"/>
			<line style="&st0;" x1="0" y1="272.7" x2="100" y2="272.7"/>
		</symbol>
		<symbol id="clef">
			<line class="st0" x1="0" y1="200.7" x2="100" y2="200.7"/>
			<line class="st0" x1="0" y1="218.7" x2="100" y2="218.7"/>
			<line class="st0" x1="0" y1="236.7" x2="100" y2="236.7"/>
			<line class="st0" x1="0" y1="254.7" x2="100" y2="254.7"/>
			<line class="st0" x1="0" y1="272.7" x2="100" y2="272.7"/>
			<path d="M54,236c0,0,0.1,0,0.4,0c0.2,0,0.4-0.1,0.5-0.1c5.3,0,9.6,1.9,12.9,5.6c3.4,3.7,5.1,7.9,5.1,12.8c0,6-2.5,11-7.5,14.8
				c-1.3,1-3,1.9-5.1,2.5c0.2,3,0.4,5.5,0.4,7.4c0,0.4,0,1.7-0.1,4.1c-0.2,4.4-1.7,8.1-4.5,11.3c-2.7,3.1-6.1,4.7-10.1,4.7
				c-3.8,0-7-1.3-9.7-4s-4-6-4-9.8c0-2,0.8-3.7,2.3-5.1c1.6-1.4,3.4-2.1,5.6-2.1c1.9,0,3.4,0.7,4.7,2.2c1.3,1.4,2,3,2,5.1
				c0,1.8-0.7,3.4-2,4.7c-1.3,1.3-2.9,2-4.7,2c-0.7,0-1.5-0.1-2.2-0.4c2.1,3,4.8,4.6,8.2,4.6c3.2,0,5.9-1.3,7.9-3.9
				c2.2-2.7,3.3-5.9,3.5-9.5c0.1-2.2,0.1-3.5,0.1-3.9c0-2.6-0.1-4.8-0.3-6.5c-2.3,0.4-4.4,0.6-6.3,0.6c-6.5,0-12.1-2.6-16.7-7.7
				c-4.5-5.2-6.8-11.4-6.8-18.6c0-1.5,0.1-3,0.4-4.6c0.3-1.3,0.6-2.6,1.1-4.1c0.2-0.8,0.9-2.2,1.9-4.1c0.4-0.6,0.8-1.3,1.3-2.1
				c0.5-0.8,0.8-1.4,1-1.7c0.5-0.9,1.4-2.2,2.7-3.8c0.4-0.4,0.8-0.9,1.2-1.4s0.7-0.9,1-1.3c0.3-0.3,0.5-0.6,0.6-0.8s1.2-1.4,3.2-3.7
				c0.5-0.5,0.9-1,1.4-1.5s0.8-1,1.1-1.3s0.5-0.5,0.6-0.7c-1.7-5.6-2.7-10-3.2-13.4c-0.3-2.7-0.5-6.3-0.5-11c0-4.1,0.9-7.9,2.8-11.5
				c1.8-3.7,4.4-6.7,7.7-9.1c0.2-0.1,0.5-0.2,0.7-0.2c0.3,0,0.6,0.1,0.7,0.2c2.5,3,4.7,7,6.5,11.9c1.9,4.9,2.8,9.3,2.8,13.3
				c0,4.5-1.1,8.7-3.2,12.7c-2.4,4.2-5.6,8.5-9.4,12.9C51,224.5,52.4,229.4,54,236 M60,268.7c2.4-0.9,4.3-2.4,5.7-4.6
				c1.5-2.1,2.3-4.4,2.3-7c0-3.3-1.1-6.3-3.4-8.9c-2.3-2.7-5.2-4.2-8.8-4.5C57.8,253.7,59.2,262,60,268.7 M32.8,252.5
				c0,4.6,1.9,8.7,5.6,12.2c3.8,3.4,8.2,5.1,12.9,5.1c2,0,3.9-0.1,5.8-0.4c-0.7-7.1-2.2-15.7-4.4-25.6c-2.7,0.3-4.8,1.2-6.4,2.8
				c-1.5,1.6-2.3,3.5-2.3,5.6c0,3.6,1.9,6.4,5.7,8.6c0.3,0.3,0.5,0.7,0.5,1.1c0,0.4-0.2,0.7-0.5,1.1c-0.3,0.3-0.6,0.5-1.1,0.5
				c0,0-0.3-0.1-0.6-0.1c-2.7-1.5-4.7-3.3-6.2-5.6c-1.4-2.4-2-4.9-2-7.4c0-3.2,1-6.2,3-8.8c2.1-2.6,4.9-4.3,8.2-5.1
				c-1.3-5.3-2.4-9.4-3.2-12.3c-0.7,0.8-1.7,1.9-2.7,3.1s-1.7,1.9-1.9,2.1c-1.7,2.2-3,3.9-3.9,5.1c-1.6,2.2-2.8,4.1-3.5,5.7
				c-0.8,1.8-1.5,3.7-2.1,5.8C33.1,248,32.8,250.2,32.8,252.5 M56.3,180.9c-3.5,1.7-6.3,4.2-8.3,7.5c-2.1,3.3-3.1,6.9-3.1,10.8
				c0,3.4,0.8,7.9,2.5,13.6c3.4-4.1,5.9-7.9,7.6-11.3c1.8-3.7,2.7-7.5,2.7-11.5C57.7,187,57.2,184,56.3,180.9"/>
		</symbol>
		<symbol id="1">
			<!--f3-->
			<line class="st0" x1="0" y1="200.7" x2="100" y2="200.7"/>
			<line class="st0" x1="0" y1="218.7" x2="100" y2="218.7"/>
			<line class="st0" x1="0" y1="236.7" x2="100" y2="236.7"/>
			<line class="st0" x1="0" y1="254.7" x2="100" y2="254.7"/>
			<line class="st0" x1="0" y1="272.7" x2="100" y2="272.7"/>
			<line class="st1" x1="28.1" y1="290.3" x2="62.6" y2="290.3"/>
			<line class="st1" x1="28.1" y1="308.3" x2="62.6" y2="308.3"/>
			<line class="st1" x1="28.1" y1="326.3" x2="62.6" y2="326.3"/>
			<line class="st2" x1="56" y1="322.9" x2="56" y2="236.3"/>
			<path d="M49.3,316.4c2.3,0,4.1,0.6,5.7,1.8c1.5,1.3,2.2,2.9,2.2,4.8c0,3.2-1.7,6.3-5,9.1c-3.4,2.8-7,4.2-10.8,4.2
				c-2.3,0-4.1-0.6-5.7-1.8c-1.5-1.3-2.2-2.9-2.2-4.8c0-3.2,1.7-6.3,5.1-9.1C41.9,317.8,45.4,316.4,49.3,316.4"/>
			<path d="M54.9,254.3v-18h2.3c0,2.7,0.5,5.3,1.5,8c1.1,2.9,2.4,5.4,3.7,7.6c1,1.5,2.5,3.9,4.4,7.1c1.5,2.4,2.8,5,3.8,7.7
				s1.5,5.3,1.5,8c0,4.9-1,9.8-3,14.9c-0.3,0.6-0.8,0.8-1.3,0.8s-0.9-0.2-1.3-0.6c-0.3-0.3-0.4-0.6-0.4-1.1v-0.3c2-4.6,3-9.2,3-13.8
				c0-2.3-0.7-4.9-2.1-7.6c-1.4-2.8-2.8-5-4.3-6.6c-1.6-1.9-3.5-4-5.6-6.2h-2.2"/>
		</symbol>
		<symbol id="2">
			<!--g3-->
			<line class="st0" x1="0" y1="200.7" x2="100" y2="200.7"/>
			<line class="st0" x1="0" y1="218.7" x2="100" y2="218.7"/>
			<line class="st0" x1="0" y1="236.7" x2="100" y2="236.7"/>
			<line class="st0" x1="0" y1="254.7" x2="100" y2="254.7"/>
			<line class="st0" x1="0" y1="272.7" x2="100" y2="272.7"/>
			<line class="st1" x1="33.4" y1="290.5" x2="68" y2="290.5"/>
			<line class="st1" x1="33.4" y1="308.5" x2="68" y2="308.5"/>
			<line class="st2" x1="61.4" y1="314.1" x2="61.4" y2="236.5"/>
			<path d="M54.7,307.6c2.3,0,4.2,0.6,5.7,1.8c1.5,1.3,2.2,2.9,2.2,4.8c0,3.2-1.7,6.3-5,9.1c-3.4,2.8-7,4.2-10.8,4.2
				c-2.3,0-4.1-0.6-5.7-1.8c-1.5-1.3-2.2-2.9-2.2-4.8c0-3.2,1.7-6.3,5.1-9.1C47.2,309,50.8,307.6,54.7,307.6"/>
			<path d="M60.2,254.5v-18h2.3c0,2.7,0.5,5.3,1.5,8c1.1,2.9,2.4,5.4,3.7,7.6c1,1.5,2.5,3.9,4.4,7.1c1.5,2.4,2.8,5,3.8,7.7
				c1,2.7,1.5,5.3,1.5,8c0,4.9-1,9.8-3,14.9c-0.3,0.6-0.8,0.8-1.3,0.8s-0.9-0.2-1.3-0.6c-0.3-0.3-0.4-0.6-0.4-1.1v-0.3
				c2-4.6,3-9.2,3-13.8c0-2.3-0.7-4.9-2.1-7.6c-1.4-2.8-2.8-5-4.3-6.6c-1.6-1.9-3.5-4-5.6-6.2h-2.2"/>
		</symbol>
		<symbol id="3">
			<!--a3-->
			<line class="st0" x1="0" y1="200.7" x2="100" y2="200.7"/>
			<line class="st0" x1="0" y1="218.7" x2="100" y2="218.7"/>
			<line class="st0" x1="0" y1="236.7" x2="100" y2="236.7"/>
			<line class="st0" x1="0" y1="254.7" x2="100" y2="254.7"/>
			<line class="st0" x1="0" y1="272.7" x2="100" y2="272.7"/>
			<line class="st1" x1="33.8" y1="290.8" x2="68.3" y2="290.8"/>
			<line class="st1" x1="33.8" y1="308.8" x2="68.3" y2="308.8"/>
			<line class="st2" x1="61.7" y1="305.4" x2="61.7" y2="236.8"/>
			<path d="M55,298.9c2.2,0,4.1,0.6,5.7,1.8c1.5,1.3,2.2,2.9,2.2,4.8c0,3.2-1.7,6.3-5,9.1c-3.4,2.8-7,4.2-10.8,4.2
				c-2.2,0-4.1-0.6-5.7-1.8c-1.5-1.3-2.2-2.9-2.2-4.8c0-3.2,1.7-6.3,5.1-9.1C47.5,300.3,51.1,298.9,55,298.9"/>
			<path d="M60.5,254.8v-18h2.2c0,2.7,0.5,5.3,1.5,8c1.1,2.9,2.4,5.4,3.7,7.6c1,1.5,2.5,3.9,4.4,7.1c1.5,2.4,2.8,5,3.8,7.7
				s1.5,5.3,1.5,8c0,4.9-1,9.8-3,14.9c-0.3,0.6-0.8,0.8-1.3,0.8s-0.9-0.2-1.3-0.6c-0.3-0.3-0.4-0.6-0.4-1.1v-0.3c2-4.6,3-9.2,3-13.8
				c0-2.3-0.7-4.9-2.1-7.6c-1.4-2.8-2.8-5-4.3-6.6c-1.6-1.9-3.5-4-5.6-6.2h-2.1"/>
		</symbol>
		<symbol id="4">
		 	<!--b3-->
			<line class="st0" x1="0" y1="200.7" x2="100" y2="200.7"/>
			<line class="st0" x1="0" y1="218.7" x2="100" y2="218.7"/>
			<line class="st0" x1="0" y1="236.7" x2="100" y2="236.7"/>
			<line class="st0" x1="0" y1="254.7" x2="100" y2="254.7"/>
			<line class="st0" x1="0" y1="272.7" x2="100" y2="272.7"/>
			<line class="st1" x1="30.1" y1="291" x2="64.6" y2="291"/>
			<line class="st2" x1="58" y1="296.6" x2="58" y2="237"/>
			<path d="M51.3,290.1c2.2,0,4.1,0.6,5.7,1.8c1.5,1.3,2.2,2.9,2.2,4.8c0,3.2-1.7,6.3-5,9.1c-3.4,2.8-7,4.2-10.8,4.2
				c-2.2,0-4.2-0.6-5.7-1.8c-1.5-1.3-2.2-2.9-2.2-4.8c0-3.2,1.7-6.3,5.1-9.1C43.9,291.5,47.5,290.1,51.3,290.1"/>
			<path d="M56.9,255v-18h2.2c0,2.7,0.5,5.3,1.5,8c1.1,2.9,2.4,5.4,3.7,7.6c1,1.5,2.5,3.9,4.4,7.1c1.5,2.4,2.8,5,3.8,7.7
				c1,2.7,1.5,5.3,1.5,8c0,4.9-1,9.8-3,14.9c-0.3,0.6-0.8,0.8-1.3,0.8s-0.9-0.2-1.3-0.6c-0.3-0.3-0.4-0.6-0.4-1.1v-0.3
				c2-4.6,3-9.2,3-13.8c0-2.3-0.7-4.9-2.1-7.6c-1.4-2.8-2.8-5-4.3-6.6c-1.6-1.9-3.5-4-5.6-6.2h-2.1"/>
		</symbol>
		<symbol id="5">
		  <!--c4-->
			<line class="st0" x1="0" y1="200.7" x2="100" y2="200.7"/>
			<line class="st0" x1="0" y1="218.7" x2="100" y2="218.7"/>
			<line class="st0" x1="0" y1="236.7" x2="100" y2="236.7"/>
			<line class="st0" x1="0" y1="254.7" x2="100" y2="254.7"/>
			<line class="st0" x1="0" y1="272.7" x2="100" y2="272.7"/>
			<line class="st1" x1="28.3" y1="289.5" x2="62.8" y2="289.5"/>
			<line class="st2" x1="56.2" y1="286.1" x2="56.2" y2="226.5"/>
			<path d="M49.5,279.6c2.3,0,4.2,0.6,5.7,1.8c1.5,1.3,2.2,2.9,2.2,4.8c0,3.2-1.7,6.3-5,9.1c-3.4,2.8-7,4.2-10.8,4.2
				c-2.3,0-4.1-0.6-5.7-1.8c-1.5-1.3-2.2-2.9-2.2-4.8c0-3.2,1.7-6.3,5.1-9.1C42,281,45.6,279.6,49.5,279.6"/>
			<path d="M55,244.5v-18h2.3c0,2.7,0.5,5.3,1.5,8c1.1,2.9,2.4,5.4,3.7,7.6c1,1.5,2.5,3.9,4.4,7.1c1.5,2.4,2.8,5,3.8,7.7
				c1,2.7,1.5,5.3,1.5,8c0,4.9-1,9.8-3,14.9c-0.3,0.6-0.8,0.8-1.3,0.8s-0.9-0.2-1.3-0.6c-0.3-0.3-0.4-0.6-0.4-1.1v-0.3
				c2-4.6,3-9.2,3-13.8c0-2.3-0.7-4.9-2.1-7.6c-1.4-2.8-2.8-5-4.3-6.6c-1.6-1.9-3.5-4-5.6-6.2H55"/>
		</symbol>
		<symbol id="6">
		  <!--d4-->
			<line class="st0" x1="0" y1="200.7" x2="100" y2="200.7"/>
			<line class="st0" x1="0" y1="218.7" x2="100" y2="218.7"/>
			<line class="st0" x1="0" y1="236.7" x2="100" y2="236.7"/>
			<line class="st0" x1="0" y1="254.7" x2="100" y2="254.7"/>
			<line class="st0" x1="0" y1="272.7" x2="100" y2="272.7"/>
			<line class="st2" x1="54.8" y1="277.6" x2="54.8" y2="218"/>
			<path d="M48.1,271.1c2.2,0,4.1,0.6,5.7,1.8c1.5,1.3,2.2,2.9,2.2,4.8c0,3.2-1.7,6.3-5,9.1c-3.4,2.8-7,4.2-10.8,4.2
				c-2.2,0-4.2-0.6-5.7-1.8c-1.5-1.3-2.2-2.9-2.2-4.8c0-3.2,1.7-6.3,5.1-9.1C40.6,272.5,44.2,271.1,48.1,271.1"/>
			<path d="M53.7,236v-18h2.2c0,2.7,0.5,5.3,1.5,8c1.1,2.9,2.4,5.4,3.7,7.6c1,1.5,2.5,3.9,4.4,7.1c1.5,2.4,2.8,5,3.8,7.7s1.5,5.3,1.5,8
				c0,4.9-1,9.8-3,14.9c-0.3,0.6-0.8,0.8-1.3,0.8s-0.9-0.2-1.3-0.6c-0.3-0.3-0.4-0.6-0.4-1.1v-0.3c2-4.6,3-9.2,3-13.8
				c0-2.3-0.7-4.9-2.1-7.6c-1.4-2.8-2.8-5-4.3-6.6c-1.6-1.9-3.5-4-5.6-6.2h-2.1"/>
		</symbol>
		<symbol id="7">
		  <!--e4-->
			<line class="st0" x1="0" y1="200.7" x2="100" y2="200.7"/>
			<line class="st0" x1="0" y1="218.7" x2="100" y2="218.7"/>
			<line class="st0" x1="0" y1="236.7" x2="100" y2="236.7"/>
			<line class="st0" x1="0" y1="254.7" x2="100" y2="254.7"/>
			<line class="st0" x1="0" y1="272.7" x2="100" y2="272.7"/>
			<line class="st2" x1="53.4" y1="270.1" x2="53.4" y2="210.5"/>
			<path d="M46.7,263.6c2.2,0,4.1,0.6,5.7,1.8c1.5,1.3,2.2,2.9,2.2,4.8c0,3.2-1.7,6.3-5,9.1c-3.4,2.8-7,4.2-10.8,4.2
				c-2.2,0-4.1-0.6-5.7-1.8c-1.5-1.3-2.2-2.9-2.2-4.8c0-3.2,1.7-6.3,5.1-9.1C39.2,265,42.8,263.6,46.7,263.6"/>
			<path d="M52.2,228.5v-18h2.2c0,2.7,0.5,5.3,1.5,8c1.1,2.9,2.4,5.4,3.7,7.6c1,1.5,2.5,3.9,4.4,7.1c1.5,2.4,2.8,5,3.8,7.7
				s1.5,5.3,1.5,8c0,4.9-1,9.8-3,14.9c-0.3,0.6-0.8,0.8-1.3,0.8s-0.9-0.2-1.3-0.6c-0.3-0.3-0.4-0.6-0.4-1.1v-0.3c2-4.6,3-9.2,3-13.8
				c0-2.3-0.7-4.9-2.1-7.6c-1.4-2.8-2.8-5-4.3-6.6c-1.6-1.9-3.5-4-5.6-6.2h-2.1"/>
		</symbol>
		<symbol id="8">
		  <!--f4-->
			<line class="st0" x1="0" y1="200.7" x2="100" y2="200.7"/>
			<line class="st0" x1="0" y1="218.7" x2="100" y2="218.7"/>
			<line class="st0" x1="0" y1="236.7" x2="100" y2="236.7"/>
			<line class="st0" x1="0" y1="254.7" x2="100" y2="254.7"/>
			<line class="st0" x1="0" y1="272.7" x2="100" y2="272.7"/>
			<line class="st2" x1="53.4" y1="261.1" x2="53.4" y2="201.5"/>
			<path d="M46.7,254.6c2.2,0,4.1,0.6,5.7,1.8c1.5,1.3,2.2,2.9,2.2,4.8c0,3.2-1.7,6.3-5,9.1c-3.4,2.8-7,4.2-10.8,4.2
				c-2.2,0-4.1-0.6-5.7-1.8c-1.5-1.3-2.2-2.9-2.2-4.8c0-3.2,1.7-6.3,5.1-9.1C39.2,256,42.8,254.6,46.7,254.6"/>
			<path d="M52.2,219.5v-18h2.2c0,2.7,0.5,5.3,1.5,8c1.1,2.9,2.4,5.4,3.7,7.6c1,1.5,2.5,3.9,4.4,7.1c1.5,2.4,2.8,5,3.8,7.7
				s1.5,5.3,1.5,8c0,4.9-1,9.8-3,14.9c-0.3,0.6-0.8,0.8-1.3,0.8s-0.9-0.2-1.3-0.6c-0.3-0.3-0.4-0.6-0.4-1.1v-0.3c2-4.6,3-9.2,3-13.8
				c0-2.3-0.7-4.9-2.1-7.6c-1.4-2.8-2.8-5-4.3-6.6c-1.6-1.9-3.5-4-5.6-6.2h-2.1"/>
		</symbol>
		<symbol id="9">
		  <!--g4-->
			<line class="st0" x1="0" y1="200.7" x2="100" y2="200.7"/>
			<line class="st0" x1="0" y1="218.7" x2="100" y2="218.7"/>
			<line class="st0" x1="0" y1="236.7" x2="100" y2="236.7"/>
			<line class="st0" x1="0" y1="254.7" x2="100" y2="254.7"/>
			<line class="st0" x1="0" y1="272.7" x2="100" y2="272.7"/>
			<line class="st2" x1="53.4" y1="252.1" x2="53.4" y2="192.5"/>
			<path d="M46.7,245.6c2.2,0,4.1,0.6,5.7,1.8c1.5,1.3,2.2,2.9,2.2,4.8c0,3.2-1.7,6.3-5,9.1c-3.4,2.8-7,4.2-10.8,4.2
				c-2.2,0-4.1-0.6-5.7-1.8c-1.5-1.3-2.2-2.9-2.2-4.8c0-3.2,1.7-6.3,5.1-9.1C39.2,247,42.8,245.6,46.7,245.6"/>
			<path d="M52.2,210.5v-18h2.2c0,2.7,0.5,5.3,1.5,8c1.1,2.9,2.4,5.4,3.7,7.6c1,1.5,2.5,3.9,4.4,7.1c1.5,2.4,2.8,5,3.8,7.7
				s1.5,5.3,1.5,8c0,4.9-1,9.8-3,14.9c-0.3,0.6-0.8,0.8-1.3,0.8s-0.9-0.2-1.3-0.6c-0.3-0.3-0.4-0.6-0.4-1.1v-0.3c2-4.6,3-9.2,3-13.8
				c0-2.3-0.7-4.9-2.1-7.6c-1.4-2.8-2.8-5-4.3-6.6c-1.6-1.9-3.5-4-5.6-6.2h-2.1"/>
		</symbol>
		<symbol id="10">
		  <!--a4-->
			<line class="st0" x1="0" y1="200.7" x2="100" y2="200.7"/>
			<line class="st0" x1="0" y1="218.7" x2="100" y2="218.7"/>
			<line class="st0" x1="0" y1="236.7" x2="100" y2="236.7"/>
			<line class="st0" x1="0" y1="254.7" x2="100" y2="254.7"/>
			<line class="st0" x1="0" y1="272.7" x2="100" y2="272.7"/>
			<line class="st2" x1="53.4" y1="243.1" x2="53.4" y2="183.5"/>
			<path d="M46.7,236.6c2.2,0,4.1,0.6,5.7,1.8c1.5,1.3,2.2,2.9,2.2,4.8c0,3.2-1.7,6.3-5,9.1c-3.4,2.8-7,4.2-10.8,4.2
				c-2.2,0-4.1-0.6-5.7-1.8c-1.5-1.3-2.2-2.9-2.2-4.8c0-3.2,1.7-6.3,5.1-9.1C39.2,238,42.8,236.6,46.7,236.6"/>
			<path d="M52.2,201.5v-18h2.2c0,2.7,0.5,5.3,1.5,8c1.1,2.9,2.4,5.4,3.7,7.6c1,1.5,2.5,3.9,4.4,7.1c1.5,2.4,2.8,5,3.8,7.7
				s1.5,5.3,1.5,8c0,4.9-1,9.8-3,14.9c-0.3,0.6-0.8,0.8-1.3,0.8s-0.9-0.2-1.3-0.6c-0.3-0.3-0.4-0.6-0.4-1.1v-0.3c2-4.6,3-9.2,3-13.8
				c0-2.3-0.7-4.9-2.1-7.6c-1.4-2.8-2.8-5-4.3-6.6c-1.6-1.9-3.5-4-5.6-6.2h-2.1"/>
		</symbol>
		<symbol id="11">
		  <!--b4-->
			<line class="st0" x1="0" y1="200.7" x2="100" y2="200.7"/>
			<line class="st0" x1="0" y1="218.7" x2="100" y2="218.7"/>
			<line class="st0" x1="0" y1="236.7" x2="100" y2="236.7"/>
			<line class="st0" x1="0" y1="254.7" x2="100" y2="254.7"/>
			<line class="st0" x1="0" y1="272.7" x2="100" y2="272.7"/>
			<line class="st2" x1="38.6" y1="238.6" x2="38.6" y2="298.2"/>
			<path d="M53.2,225.3c2.2,0,4.1,0.6,5.7,1.8c1.5,1.3,2.2,2.9,2.2,4.8c0,3.2-1.7,6.3-5,9.1c-3.4,2.8-7,4.2-10.8,4.2
				c-2.2,0-4.1-0.6-5.7-1.8c-1.5-1.3-2.2-2.9-2.2-4.8c0-3.2,1.7-6.3,5.1-9.1C45.8,226.7,49.4,225.3,53.2,225.3"/>
			<path d="M53.8,246.1c1.1,0,2.2,1.8,3.4,5.3c1.2,3.5,1.8,6.8,1.8,9.9c0,2.7-0.7,5.3-2,7.9c-1.4,2.8-3,5.2-4.9,7.3l-5.8,6.5
				c-1.8,2.1-3.4,4.5-4.8,7.2c-1.3,2.6-2,5.3-2,8h-2.2v-18h2.2c1.3-0.8,3.1-2.1,5.6-3.8c1.1-0.8,2.8-2.2,5.1-4.2
				c1.8-1.7,3.2-3.4,4.2-5.2c1-1.9,1.5-3.8,1.5-5.7c0-4.5-1.3-8.9-3.9-13.3c0,0,0-0.1,0-0.3c0-0.4,0.1-0.8,0.4-1.1
				C52.9,246.3,53.3,246.1,53.8,246.1"/>
		</symbol>
		<symbol id="12">
		  <!--c5-->
			<line class="st0" x1="0" y1="200.7" x2="100" y2="200.7"/>
			<line class="st0" x1="0" y1="218.7" x2="100" y2="218.7"/>
			<line class="st0" x1="0" y1="236.7" x2="100" y2="236.7"/>
			<line class="st0" x1="0" y1="254.7" x2="100" y2="254.7"/>
			<line class="st0" x1="0" y1="272.7" x2="100" y2="272.7"/>
			<line class="st2" x1="38.6" y1="231.6" x2="38.6" y2="291.2"/>
			<path d="M53.2,218.3c2.2,0,4.1,0.6,5.7,1.8c1.5,1.3,2.2,2.9,2.2,4.8c0,3.2-1.7,6.3-5,9.1c-3.4,2.8-7,4.2-10.8,4.2
				c-2.2,0-4.1-0.6-5.7-1.8c-1.5-1.3-2.2-2.9-2.2-4.8c0-3.2,1.7-6.3,5.1-9.1C45.8,219.7,49.4,218.3,53.2,218.3"/>
			<path d="M53.8,239.1c1.1,0,2.2,1.8,3.4,5.3c1.2,3.5,1.8,6.8,1.8,9.9c0,2.7-0.7,5.3-2,7.9c-1.4,2.8-3,5.2-4.9,7.3l-5.8,6.5
				c-1.8,2.1-3.4,4.5-4.8,7.2c-1.3,2.6-2,5.3-2,8h-2.2v-18h2.2c1.3-0.8,3.1-2.1,5.6-3.8c1.1-0.8,2.8-2.2,5.1-4.2
				c1.8-1.7,3.2-3.4,4.2-5.2c1-1.9,1.5-3.8,1.5-5.7c0-4.5-1.3-8.9-3.9-13.3c0,0,0-0.1,0-0.3c0-0.4,0.1-0.8,0.4-1.1
				C52.9,239.3,53.3,239.1,53.8,239.1"/>
		</symbol>
		<symbol id="13">
		  <!--d5-->
			<line class="st0" x1="0" y1="200.7" x2="100" y2="200.7"/>
			<line class="st0" x1="0" y1="218.7" x2="100" y2="218.7"/>
			<line class="st0" x1="0" y1="236.7" x2="100" y2="236.7"/>
			<line class="st0" x1="0" y1="254.7" x2="100" y2="254.7"/>
			<line class="st0" x1="0" y1="272.7" x2="100" y2="272.7"/>
			<line class="st2" x1="38.6" y1="220.6" x2="38.6" y2="280.2"/>
			<path d="M53.2,207.3c2.2,0,4.1,0.6,5.7,1.8c1.5,1.3,2.2,2.9,2.2,4.8c0,3.2-1.7,6.3-5,9.1c-3.4,2.8-7,4.2-10.8,4.2
				c-2.2,0-4.1-0.6-5.7-1.8c-1.5-1.3-2.2-2.9-2.2-4.8c0-3.2,1.7-6.3,5.1-9.1C45.8,208.7,49.4,207.3,53.2,207.3"/>
			<path d="M53.8,228.1c1.1,0,2.2,1.8,3.4,5.3c1.2,3.5,1.8,6.8,1.8,9.9c0,2.7-0.7,5.3-2,7.9c-1.4,2.8-3,5.2-4.9,7.3l-5.8,6.5
				c-1.8,2.1-3.4,4.5-4.8,7.2c-1.3,2.6-2,5.3-2,8h-2.2v-18h2.2c1.3-0.8,3.1-2.1,5.6-3.8c1.1-0.8,2.8-2.2,5.1-4.2
				c1.8-1.7,3.2-3.4,4.2-5.2c1-1.9,1.5-3.8,1.5-5.7c0-4.5-1.3-8.9-3.9-13.3c0,0,0-0.1,0-0.3c0-0.4,0.1-0.8,0.4-1.1
				C52.9,228.3,53.3,228.1,53.8,228.1"/>
		</symbol>
		<symbol id="14">
		  <!--e5-->
			<line class="st0" x1="0" y1="200.7" x2="100" y2="200.7"/>
			<line class="st0" x1="0" y1="218.7" x2="100" y2="218.7"/>
			<line class="st0" x1="0" y1="236.7" x2="100" y2="236.7"/>
			<line class="st0" x1="0" y1="254.7" x2="100" y2="254.7"/>
			<line class="st0" x1="0" y1="272.7" x2="100" y2="272.7"/>
			<line class="st2" x1="38.6" y1="213.6" x2="38.6" y2="273.2"/>
			<path d="M53.2,200.3c2.2,0,4.1,0.6,5.7,1.8c1.5,1.3,2.2,2.9,2.2,4.8c0,3.2-1.7,6.3-5,9.1c-3.4,2.8-7,4.2-10.8,4.2
				c-2.2,0-4.1-0.6-5.7-1.8c-1.5-1.3-2.2-2.9-2.2-4.8c0-3.2,1.7-6.3,5.1-9.1C45.8,201.7,49.4,200.3,53.2,200.3"/>
			<path d="M53.8,221.1c1.1,0,2.2,1.8,3.4,5.3c1.2,3.5,1.8,6.8,1.8,9.9c0,2.7-0.7,5.3-2,7.9c-1.4,2.8-3,5.2-4.9,7.3l-5.8,6.5
				c-1.8,2.1-3.4,4.5-4.8,7.2c-1.3,2.6-2,5.3-2,8h-2.2v-18h2.2c1.3-0.8,3.1-2.1,5.6-3.8c1.1-0.8,2.8-2.2,5.1-4.2
				c1.8-1.7,3.2-3.4,4.2-5.2c1-1.9,1.5-3.8,1.5-5.7c0-4.5-1.3-8.9-3.9-13.3c0,0,0-0.1,0-0.3c0-0.4,0.1-0.8,0.4-1.1
				C52.9,221.3,53.3,221.1,53.8,221.1"/>
		</symbol>
		<symbol id="15">
		  <!--f5-->
			<line class="st0" x1="0" y1="200.7" x2="100" y2="200.7"/>
			<line class="st0" x1="0" y1="218.7" x2="100" y2="218.7"/>
			<line class="st0" x1="0" y1="236.7" x2="100" y2="236.7"/>
			<line class="st0" x1="0" y1="254.7" x2="100" y2="254.7"/>
			<line class="st0" x1="0" y1="272.7" x2="100" y2="272.7"/>
			<line class="st2" x1="38.6" y1="203.6" x2="38.6" y2="263.2"/>
			<path d="M53.2,190.3c2.2,0,4.1,0.6,5.7,1.8c1.5,1.3,2.2,2.9,2.2,4.8c0,3.2-1.7,6.3-5,9.1c-3.4,2.8-7,4.2-10.8,4.2
				c-2.2,0-4.1-0.6-5.7-1.8c-1.5-1.3-2.2-2.9-2.2-4.8c0-3.2,1.7-6.3,5.1-9.1C45.8,191.7,49.4,190.3,53.2,190.3"/>
			<path d="M53.8,211.1c1.1,0,2.2,1.8,3.4,5.3c1.2,3.5,1.8,6.8,1.8,9.9c0,2.7-0.7,5.3-2,7.9c-1.4,2.8-3,5.2-4.9,7.3l-5.8,6.5
				c-1.8,2.1-3.4,4.5-4.8,7.2c-1.3,2.6-2,5.3-2,8h-2.2v-18h2.2c1.3-0.8,3.1-2.1,5.6-3.8c1.1-0.8,2.8-2.2,5.1-4.2
				c1.8-1.7,3.2-3.4,4.2-5.2c1-1.9,1.5-3.8,1.5-5.7c0-4.5-1.3-8.9-3.9-13.3c0,0,0-0.1,0-0.3c0-0.4,0.1-0.8,0.4-1.1
				C52.9,211.3,53.3,211.1,53.8,211.1"/>
		</symbol>
		<symbol id="16">
		  <!--g5-->
			<line class="st0" x1="0" y1="200.7" x2="100" y2="200.7"/>
			<line class="st0" x1="0" y1="218.7" x2="100" y2="218.7"/>
			<line class="st0" x1="0" y1="236.7" x2="100" y2="236.7"/>
			<line class="st0" x1="0" y1="254.7" x2="100" y2="254.7"/>
			<line class="st0" x1="0" y1="272.7" x2="100" y2="272.7"/>
			<line class="st2" x1="38.6" y1="195.6" x2="38.6" y2="255.2"/>
			<path d="M53.2,182.3c2.2,0,4.1,0.6,5.7,1.8c1.5,1.3,2.2,2.9,2.2,4.8c0,3.2-1.7,6.3-5,9.1c-3.4,2.8-7,4.2-10.8,4.2
				c-2.2,0-4.1-0.6-5.7-1.8c-1.5-1.3-2.2-2.9-2.2-4.8c0-3.2,1.7-6.3,5.1-9.1C45.8,183.7,49.4,182.3,53.2,182.3"/>
			<path d="M53.8,203.1c1.1,0,2.2,1.8,3.4,5.3c1.2,3.5,1.8,6.8,1.8,9.9c0,2.7-0.7,5.3-2,7.9c-1.4,2.8-3,5.2-4.9,7.3l-5.8,6.5
				c-1.8,2.1-3.4,4.5-4.8,7.2c-1.3,2.6-2,5.3-2,8h-2.2v-18h2.2c1.3-0.8,3.1-2.1,5.6-3.8c1.1-0.8,2.8-2.2,5.1-4.2
				c1.8-1.7,3.2-3.4,4.2-5.2c1-1.9,1.5-3.8,1.5-5.7c0-4.5-1.3-8.9-3.9-13.3c0,0,0-0.1,0-0.3c0-0.4,0.1-0.8,0.4-1.1
				C52.9,203.3,53.3,203.1,53.8,203.1"/>
		</symbol>
		<symbol id="17">
		  <!--a5-->
			<line class="st0" x1="0" y1="200.7" x2="100" y2="200.7"/>
			<line class="st0" x1="0" y1="218.7" x2="100" y2="218.7"/>
			<line class="st0" x1="0" y1="236.7" x2="100" y2="236.7"/>
			<line class="st0" x1="0" y1="254.7" x2="100" y2="254.7"/>
			<line class="st0" x1="0" y1="272.7" x2="100" y2="272.7"/>
			<line class="st1" x1="32.4" y1="182.4" x2="66.9" y2="182.4"/>
			<line class="st2" x1="39" y1="185.8" x2="39" y2="245.4"/>
			<path d="M53.7,172.5c2.2,0,4.1,0.6,5.7,1.8c1.5,1.3,2.2,2.9,2.2,4.8c0,3.2-1.7,6.3-5,9.1c-3.4,2.8-7,4.2-10.8,4.2
				c-2.2,0-4.1-0.6-5.7-1.8c-1.5-1.3-2.2-2.9-2.2-4.8c0-3.2,1.7-6.3,5.1-9.1C46.2,173.9,49.8,172.5,53.7,172.5"/>
			<path d="M54.2,193.3c1.1,0,2.2,1.8,3.4,5.3c1.2,3.5,1.8,6.8,1.8,9.9c0,2.7-0.7,5.3-2,7.9c-1.4,2.8-3,5.2-4.9,7.3l-5.8,6.5
				c-1.8,2.1-3.4,4.5-4.8,7.2c-1.3,2.6-2,5.3-2,8h-2.2v-18h2.2c1.3-0.8,3.1-2.1,5.6-3.8c1.1-0.8,2.8-2.2,5.1-4.2
				c1.8-1.7,3.2-3.4,4.1-5.2c1-1.9,1.5-3.8,1.5-5.7c0-4.5-1.3-8.9-3.9-13.3c0,0,0-0.1,0-0.3c0-0.4,0.1-0.8,0.4-1.1
				C53.3,193.5,53.8,193.3,54.2,193.3"/>
		</symbol>
		<symbol id="18">
		  <!--b5-->
			<line class="st0" x1="0" y1="200.7" x2="100" y2="200.7"/>
			<line class="st0" x1="0" y1="218.7" x2="100" y2="218.7"/>
			<line class="st0" x1="0" y1="236.7" x2="100" y2="236.7"/>
			<line class="st0" x1="0" y1="254.7" x2="100" y2="254.7"/>
			<line class="st0" x1="0" y1="272.7" x2="100" y2="272.7"/>
			<line class="st1" x1="32.8" y1="182.4" x2="67.3" y2="182.4"/>
			<line class="st2" x1="39.4" y1="176.8" x2="39.4" y2="236.4"/>
			<path d="M54,163.5c2.3,0,4.1,0.6,5.7,1.8c1.5,1.3,2.2,2.9,2.2,4.8c0,3.2-1.7,6.3-5,9.1c-3.4,2.8-7,4.2-10.8,4.2
				c-2.2,0-4.1-0.6-5.7-1.8c-1.5-1.3-2.2-2.9-2.2-4.8c0-3.2,1.7-6.3,5.1-9.1C46.5,164.9,50.1,163.5,54,163.5"/>
			<path d="M54.6,184.3c1.1,0,2.2,1.8,3.4,5.3s1.8,6.8,1.8,9.9c0,2.7-0.7,5.3-2,7.9c-1.4,2.8-3,5.2-4.9,7.3l-5.8,6.5
				c-1.8,2.1-3.4,4.5-4.8,7.2c-1.3,2.6-2,5.3-2,8h-2.2v-18h2.2c1.3-0.8,3.1-2.1,5.6-3.8c1.1-0.8,2.8-2.2,5.1-4.2
				c1.8-1.7,3.2-3.4,4.1-5.2c1-1.9,1.5-3.8,1.5-5.7c0-4.5-1.3-8.9-3.9-13.3c0,0,0-0.1,0-0.3c0-0.4,0.1-0.8,0.4-1.1
				C53.7,184.5,54.1,184.3,54.6,184.3"/>
		</symbol>
		<symbol id="19">
		  <!--c6-->
			<line class="st0" x1="0" y1="200.7" x2="100" y2="200.7"/>
			<line class="st0" x1="0" y1="218.7" x2="100" y2="218.7"/>
			<line class="st0" x1="0" y1="236.7" x2="100" y2="236.7"/>
			<line class="st0" x1="0" y1="254.7" x2="100" y2="254.7"/>
			<line class="st0" x1="0" y1="272.7" x2="100" y2="272.7"/>
			<line class="st1" x1="33.2" y1="164.4" x2="67.7" y2="164.4"/>
			<line class="st1" x1="33.2" y1="182.4" x2="67.7" y2="182.4"/>
			<line class="st2" x1="39.7" y1="167.8" x2="39.7" y2="236.4"/>
			<path d="M54.4,154.5c2.2,0,4.2,0.6,5.7,1.8c1.5,1.3,2.2,2.9,2.2,4.8c0,3.2-1.7,6.3-5,9.1c-3.4,2.8-7,4.2-10.8,4.2
				c-2.2,0-4.1-0.6-5.7-1.8c-1.5-1.3-2.2-2.9-2.2-4.8c0-3.2,1.7-6.3,5.1-9.1C46.9,155.9,50.5,154.5,54.4,154.5"/>
			<path d="M55,184.3c1.1,0,2.2,1.8,3.4,5.3c1.2,3.5,1.8,6.8,1.8,9.9c0,2.7-0.7,5.3-2,7.9c-1.4,2.8-3,5.2-4.9,7.3l-5.8,6.5
				c-1.8,2.1-3.4,4.5-4.8,7.2c-1.3,2.6-2,5.3-2,8h-2.2v-18h2.2c1.3-0.8,3.1-2.1,5.6-3.8c1.1-0.8,2.8-2.2,5.1-4.2
				c1.8-1.7,3.2-3.4,4.1-5.2c1-1.9,1.5-3.8,1.5-5.7c0-4.5-1.3-8.9-3.9-13.3c0,0,0-0.1,0-0.3c0-0.4,0.1-0.8,0.4-1.1
				C54.1,184.5,54.5,184.3,55,184.3"/>
		</symbol>
		<symbol id="20">
		  <!--d6-->
			<line class="st0" x1="0" y1="200.7" x2="100" y2="200.7"/>
			<line class="st0" x1="0" y1="218.7" x2="100" y2="218.7"/>
			<line class="st0" x1="0" y1="236.7" x2="100" y2="236.7"/>
			<line class="st0" x1="0" y1="254.7" x2="100" y2="254.7"/>
			<line class="st0" x1="0" y1="272.7" x2="100" y2="272.7"/>
			<line class="st1" x1="32.5" y1="164.4" x2="67" y2="164.4"/>
			<line class="st1" x1="32.5" y1="182.4" x2="67" y2="182.4"/>
			<line class="st2" x1="39.1" y1="158.8" x2="39.1" y2="236.4"/>
			<path d="M53.8,145.5c2.2,0,4.1,0.6,5.7,1.8c1.5,1.3,2.2,2.9,2.2,4.8c0,3.2-1.7,6.3-5,9.1c-3.4,2.8-7,4.2-10.8,4.2
				c-2.2,0-4.2-0.6-5.7-1.8c-1.5-1.3-2.2-2.9-2.2-4.8c0-3.2,1.7-6.3,5.1-9.1C46.3,146.9,49.9,145.5,53.8,145.5"/>
			<path d="M54.3,184.3c1.1,0,2.2,1.8,3.4,5.3s1.8,6.8,1.8,9.9c0,2.7-0.7,5.3-2,7.9c-1.4,2.8-3,5.2-4.8,7.3l-5.8,6.5
				c-1.8,2.1-3.4,4.5-4.8,7.2c-1.3,2.6-2,5.3-2,8h-2.2v-18h2.2c1.3-0.8,3.1-2.1,5.6-3.8c1.1-0.8,2.8-2.2,5.1-4.2
				c1.8-1.7,3.2-3.4,4.1-5.2c1-1.9,1.5-3.8,1.5-5.7c0-4.5-1.3-8.9-3.9-13.3c0,0,0-0.1,0-0.3c0-0.4,0.1-0.8,0.4-1.1
				C53.4,184.5,53.8,184.3,54.3,184.3"/>
		</symbol>
		<symbol id="21">
		  <!--e6-->
			<line class="st0" x1="0" y1="200.7" x2="100" y2="200.7"/>
			<line class="st0" x1="0" y1="218.7" x2="100" y2="218.7"/>
			<line class="st0" x1="0" y1="236.7" x2="100" y2="236.7"/>
			<line class="st0" x1="0" y1="254.7" x2="100" y2="254.7"/>
			<line class="st0" x1="0" y1="272.7" x2="100" y2="272.7"/>
			<line class="st1" x1="32.4" y1="146.4" x2="66.9" y2="146.4"/>
			<line class="st1" x1="32.4" y1="164.4" x2="66.9" y2="164.4"/>
			<line class="st1" x1="32.4" y1="182.4" x2="66.9" y2="182.4"/>
			<line class="st2" x1="38.9" y1="149.8" x2="38.9" y2="236.4"/>
			<path d="M53.6,136.5c2.2,0,4.1,0.6,5.7,1.8c1.5,1.3,2.2,2.9,2.2,4.8c0,3.2-1.7,6.3-5,9.1c-3.4,2.8-7,4.2-10.8,4.2
				c-2.3,0-4.1-0.6-5.7-1.8c-1.5-1.3-2.2-2.9-2.2-4.8c0-3.2,1.7-6.3,5.1-9.1C46.1,137.9,49.7,136.5,53.6,136.5"/>
			<path d="M54.2,184.3c1.1,0,2.2,1.8,3.4,5.3s1.8,6.8,1.8,9.9c0,2.7-0.7,5.3-2,7.9c-1.4,2.8-3,5.2-4.9,7.3l-5.8,6.5
				c-1.8,2.1-3.4,4.5-4.8,7.2c-1.3,2.6-2,5.3-2,8h-2.2v-18H40c1.3-0.8,3.1-2.1,5.6-3.8c1.1-0.8,2.8-2.2,5.1-4.2
				c1.8-1.7,3.2-3.4,4.2-5.2c1-1.9,1.5-3.8,1.5-5.7c0-4.5-1.3-8.9-3.9-13.3c0,0,0-0.1,0-0.3c0-0.4,0.1-0.8,0.4-1.1
				C53.3,184.5,53.7,184.3,54.2,184.3"/>
		</symbol>
		<symbol id="22">
		  <!--f6-->
			<line class="st0" x1="0" y1="200.7" x2="100" y2="200.7"/>
			<line class="st0" x1="0" y1="218.7" x2="100" y2="218.7"/>
			<line class="st0" x1="0" y1="236.7" x2="100" y2="236.7"/>
			<line class="st0" x1="0" y1="254.7" x2="100" y2="254.7"/>
			<line class="st0" x1="0" y1="272.7" x2="100" y2="272.7"/>
			<line class="st1" x1="33" y1="146.4" x2="67.5" y2="146.4"/>
			<line class="st1" x1="33" y1="164.4" x2="67.5" y2="164.4"/>
			<line class="st1" x1="33" y1="182.4" x2="67.5" y2="182.4"/>
			<line class="st2" x1="39.6" y1="140.8" x2="39.6" y2="236.4"/>
			<path d="M54.2,127.5c2.3,0,4.2,0.6,5.7,1.8c1.5,1.3,2.2,2.9,2.2,4.8c0,3.2-1.7,6.3-5,9.1c-3.4,2.8-7,4.2-10.8,4.2
				c-2.2,0-4.1-0.6-5.7-1.8c-1.5-1.3-2.2-2.9-2.2-4.8c0-3.2,1.7-6.3,5.1-9.1C46.7,128.9,50.3,127.5,54.2,127.5"/>
			<path d="M54.8,184.3c1.1,0,2.2,1.8,3.4,5.3s1.8,6.8,1.8,9.9c0,2.7-0.7,5.3-2,7.9c-1.4,2.8-3,5.2-4.9,7.3l-5.8,6.5
				c-1.8,2.1-3.4,4.5-4.8,7.2c-1.3,2.6-2,5.3-2,8h-2.2v-18h2.2c1.3-0.8,3.1-2.1,5.6-3.8c1.1-0.8,2.8-2.2,5.1-4.2
				c1.8-1.7,3.2-3.4,4.2-5.2c1-1.9,1.5-3.8,1.5-5.7c0-4.5-1.3-8.9-3.9-13.3c0,0,0-0.1,0-0.3c0-0.4,0.1-0.8,0.4-1.1
				C53.9,184.5,54.3,184.3,54.8,184.3"/>
		</symbol>
		<symbol id="23">
		  <!--g6-->
			<line class="st0" x1="0" y1="200.7" x2="100" y2="200.7"/>
			<line class="st0" x1="0" y1="218.7" x2="100" y2="218.7"/>
			<line class="st0" x1="0" y1="236.7" x2="100" y2="236.7"/>
			<line class="st0" x1="0" y1="254.7" x2="100" y2="254.7"/>
			<line class="st0" x1="0" y1="272.7" x2="100" y2="272.7"/>
			<line class="st1" x1="32.6" y1="128.4" x2="67.1" y2="128.4"/>
			<line class="st1" x1="32.6" y1="146.4" x2="67.1" y2="146.4"/>
			<line class="st1" x1="32.6" y1="164.4" x2="67.1" y2="164.4"/>
			<line class="st1" x1="32.6" y1="182.4" x2="67.1" y2="182.4"/>
			<line class="st2" x1="39.2" y1="131.8" x2="39.2" y2="236.4"/>
			<path d="M53.9,118.5c2.2,0,4.1,0.6,5.7,1.8c1.5,1.3,2.2,2.9,2.2,4.8c0,3.2-1.7,6.3-5,9.1c-3.4,2.8-7,4.2-10.8,4.2
				c-2.3,0-4.2-0.6-5.7-1.8c-1.5-1.3-2.2-2.9-2.2-4.8c0-3.2,1.7-6.3,5.1-9.1C46.4,119.9,50,118.5,53.9,118.5"/>
			<path d="M54.4,184.3c1.1,0,2.2,1.8,3.4,5.3s1.8,6.8,1.8,9.9c0,2.7-0.7,5.3-2,7.9c-1.4,2.8-3,5.2-4.8,7.3l-5.8,6.5
				c-1.8,2.1-3.4,4.5-4.8,7.2c-1.3,2.6-2,5.3-2,8H38v-18h2.2c1.3-0.8,3.1-2.1,5.6-3.8c1.1-0.8,2.8-2.2,5.1-4.2c1.8-1.7,3.2-3.4,4.1-5.2
				c1-1.9,1.5-3.8,1.5-5.7c0-4.5-1.3-8.9-3.9-13.3c0,0,0-0.1,0-0.3c0-0.4,0.1-0.8,0.4-1.1C53.5,184.5,53.9,184.3,54.4,184.3"/>
		</symbol>
		<symbol id="24">
		  <!--a6-->
			<line class="st0" x1="0" y1="200.7" x2="100" y2="200.7"/>
			<line class="st0" x1="0" y1="218.7" x2="100" y2="218.7"/>
			<line class="st0" x1="0" y1="236.7" x2="100" y2="236.7"/>
			<line class="st0" x1="0" y1="254.7" x2="100" y2="254.7"/>
			<line class="st0" x1="0" y1="272.7" x2="100" y2="272.7"/>
			<line class="st1" x1="32.3" y1="128.4" x2="66.8" y2="128.4"/>
			<line class="st1" x1="32.3" y1="146.4" x2="66.8" y2="146.4"/>
			<line class="st1" x1="32.3" y1="164.4" x2="66.8" y2="164.4"/>
			<line class="st1" x1="32.3" y1="182.4" x2="66.8" y2="182.4"/>
			<line class="st2" x1="38.8" y1="122.8" x2="38.8" y2="236.4"/>
			<path d="M53.5,109.5c2.3,0,4.1,0.6,5.7,1.8c1.5,1.3,2.2,2.9,2.2,4.8c0,3.2-1.7,6.3-5,9.1c-3.4,2.8-7,4.2-10.8,4.2
				c-2.2,0-4.2-0.6-5.7-1.8c-1.5-1.3-2.2-2.9-2.2-4.8c0-3.2,1.7-6.3,5.1-9.1C46,110.9,49.6,109.5,53.5,109.5"/>
			<path d="M54,184.3c1.1,0,2.2,1.8,3.4,5.3s1.8,6.8,1.8,9.9c0,2.7-0.7,5.3-2,7.9c-1.4,2.8-3,5.2-4.9,7.3l-5.8,6.5
				c-1.8,2.1-3.4,4.5-4.8,7.2c-1.3,2.6-2,5.3-2,8h-2.2v-18h2.2c1.3-0.8,3.1-2.1,5.6-3.8c1.1-0.8,2.8-2.2,5.1-4.2
				c1.8-1.7,3.2-3.4,4.1-5.2c1-1.9,1.5-3.8,1.5-5.7c0-4.5-1.3-8.9-3.9-13.3c0,0,0-0.1,0-0.3c0-0.4,0.1-0.8,0.4-1.1
				C53.2,184.5,53.6,184.3,54,184.3"/>
		</symbol>
		<symbol id="25">
		  <!--b6-->
			<line class="st0" x1="0" y1="200.7" x2="100" y2="200.7"/>
			<line class="st0" x1="0" y1="218.7" x2="100" y2="218.7"/>
			<line class="st0" x1="0" y1="236.7" x2="100" y2="236.7"/>
			<line class="st0" x1="0" y1="254.7" x2="100" y2="254.7"/>
			<line class="st0" x1="0" y1="272.7" x2="100" y2="272.7"/>
			<line class="st1" x1="32.6" y1="110.2" x2="67.1" y2="110.2"/>
			<line class="st1" x1="32.6" y1="128.2" x2="67.1" y2="128.2"/>
			<line class="st1" x1="32.6" y1="146.2" x2="67.1" y2="146.2"/>
			<line class="st1" x1="32.6" y1="164.2" x2="67.1" y2="164.2"/>
			<line class="st1" x1="32.6" y1="182.2" x2="67.1" y2="182.2"/>
			<line class="st2" x1="39.2" y1="113.6" x2="39.2" y2="236.2"/>
			<path d="M53.8,100.3c2.2,0,4.2,0.6,5.7,1.8c1.5,1.3,2.2,2.9,2.2,4.8c0,3.2-1.7,6.3-5,9.1c-3.4,2.8-7,4.2-10.8,4.2
				c-2.2,0-4.1-0.6-5.7-1.8c-1.5-1.3-2.2-2.9-2.2-4.8c0-3.2,1.7-6.3,5.1-9.1C46.3,101.7,49.9,100.3,53.8,100.3"/>
			<path d="M54.4,184.1c1.1,0,2.2,1.8,3.4,5.3s1.8,6.8,1.8,9.9c0,2.7-0.7,5.3-2,7.9c-1.4,2.8-3,5.2-4.9,7.3L47,221
				c-1.8,2.1-3.4,4.5-4.8,7.2c-1.3,2.6-2,5.3-2,8H38v-18h2.2c1.3-0.8,3.1-2.1,5.6-3.8c1.1-0.8,2.8-2.2,5.1-4.2c1.8-1.7,3.2-3.4,4.1-5.2
				c1-1.9,1.5-3.8,1.5-5.7c0-4.5-1.3-8.9-3.9-13.3c0,0,0-0.1,0-0.3c0-0.4,0.1-0.8,0.4-1.1C53.5,184.3,53.9,184.1,54.4,184.1"/>
		</symbol>
		<symbol id="26">
		  <!--c7-->
			<line class="st0" x1="0" y1="200.7" x2="100" y2="200.7"/>
			<line class="st0" x1="0" y1="218.7" x2="100" y2="218.7"/>
			<line class="st0" x1="0" y1="236.7" x2="100" y2="236.7"/>
			<line class="st0" x1="0" y1="254.7" x2="100" y2="254.7"/>
			<line class="st0" x1="0" y1="272.7" x2="100" y2="272.7"/>
			<line class="st1" x1="32.2" y1="110.2" x2="66.7" y2="110.2"/>
			<line class="st1" x1="32.2" y1="128.2" x2="66.7" y2="128.2"/>
			<line class="st1" x1="32.2" y1="146.2" x2="66.7" y2="146.2"/>
			<line class="st1" x1="32.2" y1="164.2" x2="66.7" y2="164.2"/>
			<line class="st1" x1="32.2" y1="182.2" x2="66.7" y2="182.2"/>
			<line class="st2" x1="38.8" y1="104.6" x2="38.8" y2="236.2"/>
			<path d="M53.4,91.3c2.2,0,4.1,0.6,5.7,1.8c1.5,1.3,2.2,2.9,2.2,4.8c0,3.2-1.7,6.3-5,9.1c-3.4,2.8-7,4.2-10.8,4.2
				c-2.2,0-4.2-0.6-5.7-1.8c-1.5-1.3-2.2-2.9-2.2-4.8c0-3.2,1.7-6.3,5.1-9.1C46,92.7,49.5,91.3,53.4,91.3"/>
			<path d="M54,184.1c1.1,0,2.2,1.8,3.4,5.3s1.8,6.8,1.8,9.9c0,2.7-0.7,5.3-2,7.9c-1.4,2.8-3,5.2-4.8,7.3l-5.8,6.5
				c-1.8,2.1-3.4,4.5-4.8,7.2c-1.3,2.6-2,5.3-2,8h-2.2v-18h2.2c1.3-0.8,3.1-2.1,5.6-3.8c1.1-0.8,2.8-2.2,5.1-4.2
				c1.8-1.7,3.2-3.4,4.1-5.2c1-1.9,1.5-3.8,1.5-5.7c0-4.5-1.3-8.9-3.9-13.3c0,0,0-0.1,0-0.3c0-0.4,0.1-0.8,0.4-1.1
				C53.1,184.3,53.5,184.1,54,184.1"/>
		</symbol>
		<symbol id="27">
		  <!--d7-->
			<line class="st0" x1="0" y1="200.7" x2="100" y2="200.7"/>
			<line class="st0" x1="0" y1="218.7" x2="100" y2="218.7"/>
			<line class="st0" x1="0" y1="236.7" x2="100" y2="236.7"/>
			<line class="st0" x1="0" y1="254.7" x2="100" y2="254.7"/>
			<line class="st0" x1="0" y1="272.7" x2="100" y2="272.7"/>
			<line class="st1" x1="32.8" y1="92.2" x2="67.3" y2="92.2"/>
			<line class="st1" x1="32.8" y1="110.2" x2="67.3" y2="110.2"/>
			<line class="st1" x1="32.8" y1="128.2" x2="67.3" y2="128.2"/>
			<line class="st1" x1="32.8" y1="146.2" x2="67.3" y2="146.2"/>
			<line class="st1" x1="32.8" y1="164.2" x2="67.3" y2="164.2"/>
			<line class="st1" x1="32.8" y1="182.2" x2="67.3" y2="182.2"/>
			<line class="st2" x1="39.4" y1="95.6" x2="39.4" y2="236.2"/>
			<path d="M54.1,82.3c2.2,0,4.1,0.6,5.7,1.8c1.5,1.3,2.2,2.9,2.2,4.8c0,3.2-1.7,6.3-5,9.1c-3.4,2.8-7,4.2-10.8,4.2
				c-2.2,0-4.1-0.6-5.7-1.8c-1.5-1.3-2.2-2.9-2.2-4.8c0-3.2,1.7-6.3,5.1-9.1C46.6,83.7,50.2,82.3,54.1,82.3"/>
			<path d="M54.6,184.1c1.1,0,2.2,1.8,3.4,5.3s1.8,6.8,1.8,9.9c0,2.7-0.7,5.3-2,7.9c-1.4,2.8-3,5.2-4.9,7.3l-5.8,6.5
				c-1.8,2.1-3.4,4.5-4.8,7.2c-1.3,2.6-2,5.3-2,8h-2.2v-18h2.2c1.3-0.8,3.1-2.1,5.6-3.8c1.1-0.8,2.8-2.2,5.1-4.2
				c1.8-1.7,3.2-3.4,4.1-5.2c1-1.9,1.5-3.8,1.5-5.7c0-4.5-1.3-8.9-3.9-13.3c0,0,0-0.1,0-0.3c0-0.4,0.1-0.8,0.4-1.1
				C53.7,184.3,54.2,184.1,54.6,184.1"/>
		</symbol>
		<symbol id="28">
		  <!--e7-->
			<line class="st0" x1="0" y1="200.7" x2="100" y2="200.7"/>
			<line class="st0" x1="0" y1="218.7" x2="100" y2="218.7"/>
			<line class="st0" x1="0" y1="236.7" x2="100" y2="236.7"/>
			<line class="st0" x1="0" y1="254.7" x2="100" y2="254.7"/>
			<line class="st0" x1="0" y1="272.7" x2="100" y2="272.7"/>
			<line class="st1" x1="32.5" y1="92.2" x2="67" y2="92.2"/>
			<line class="st1" x1="32.5" y1="110.2" x2="67" y2="110.2"/>
			<line class="st1" x1="32.5" y1="128.2" x2="67" y2="128.2"/>
			<line class="st1" x1="32.5" y1="146.2" x2="67" y2="146.2"/>
			<line class="st1" x1="32.5" y1="164.2" x2="67" y2="164.2"/>
			<line class="st1" x1="32.5" y1="182.2" x2="67" y2="182.2"/>
			<line class="st2" x1="39" y1="86.6" x2="39" y2="236.2"/>
			<path d="M53.7,73.3c2.2,0,4.2,0.6,5.7,1.8c1.5,1.3,2.2,2.9,2.2,4.8c0,3.2-1.7,6.3-5,9.1c-3.4,2.8-7,4.2-10.8,4.2
				c-2.2,0-4.1-0.6-5.7-1.8c-1.5-1.3-2.2-2.9-2.2-4.8c0-3.2,1.7-6.3,5.1-9.1C46.2,74.7,49.8,73.3,53.7,73.3"/>
			<path d="M54.3,184.1c1.1,0,2.2,1.8,3.4,5.3s1.8,6.8,1.8,9.9c0,2.7-0.7,5.3-2,7.9c-1.4,2.8-3,5.2-4.9,7.3l-5.8,6.5
				c-1.8,2.1-3.4,4.5-4.8,7.2c-1.3,2.6-2,5.3-2,8h-2.2v-18H40c1.3-0.8,3.1-2.1,5.6-3.8c1.1-0.8,2.8-2.2,5.1-4.2
				c1.8-1.7,3.2-3.4,4.2-5.2c1-1.9,1.5-3.8,1.5-5.7c0-4.5-1.3-8.9-3.9-13.3c0,0,0-0.1,0-0.3c0-0.4,0.1-0.8,0.4-1.1
				C53.4,184.3,53.8,184.1,54.3,184.1"/>
		</symbol>
		<symbol id="29">
		  <!--f7-->
			<line class="st0" x1="0" y1="200.7" x2="100" y2="200.7"/>
			<line class="st0" x1="0" y1="218.7" x2="100" y2="218.7"/>
			<line class="st0" x1="0" y1="236.7" x2="100" y2="236.7"/>
			<line class="st0" x1="0" y1="254.7" x2="100" y2="254.7"/>
			<line class="st0" x1="0" y1="272.7" x2="100" y2="272.7"/>
			<line class="st1" x1="32.6" y1="74.2" x2="67.1" y2="74.2"/>
			<line class="st1" x1="32.6" y1="92.2" x2="67.1" y2="92.2"/>
			<line class="st1" x1="32.6" y1="110.2" x2="67.1" y2="110.2"/>
			<line class="st1" x1="32.6" y1="128.2" x2="67.1" y2="128.2"/>
			<line class="st1" x1="32.6" y1="146.2" x2="67.1" y2="146.2"/>
			<line class="st1" x1="32.6" y1="164.2" x2="67.1" y2="164.2"/>
			<line class="st1" x1="32.6" y1="182.2" x2="67.1" y2="182.2"/>
			<line class="st2" x1="39.2" y1="77.6" x2="39.2" y2="236.2"/>
			<path d="M53.8,64.3c2.2,0,4.1,0.6,5.7,1.8c1.5,1.3,2.2,2.9,2.2,4.8c0,3.2-1.7,6.3-5,9.1c-3.4,2.8-7,4.2-10.8,4.2
				c-2.2,0-4.2-0.6-5.7-1.8c-1.5-1.3-2.2-2.9-2.2-4.8c0-3.2,1.7-6.3,5.1-9.1C46.4,65.7,49.9,64.3,53.8,64.3"/>
			<path d="M54.4,184.1c1.1,0,2.2,1.8,3.4,5.3s1.8,6.8,1.8,9.9c0,2.7-0.7,5.3-2,7.9c-1.4,2.8-3,5.2-4.8,7.3L47,221
				c-1.8,2.1-3.4,4.5-4.8,7.2c-1.3,2.6-2,5.3-2,8H38v-18h2.2c1.3-0.8,3.1-2.1,5.6-3.8c1.1-0.8,2.8-2.2,5.1-4.2c1.8-1.7,3.2-3.4,4.1-5.2
				c1-1.9,1.5-3.8,1.5-5.7c0-4.5-1.3-8.9-3.9-13.3c0,0,0-0.1,0-0.3c0-0.4,0.1-0.8,0.4-1.1C53.5,184.3,53.9,184.1,54.4,184.1"/>
		</symbol>
		<symbol id="30">
		  <!--g7-->
			<line class="st0" x1="0" y1="200.7" x2="100" y2="200.7"/>
			<line class="st0" x1="0" y1="218.7" x2="100" y2="218.7"/>
			<line class="st0" x1="0" y1="236.7" x2="100" y2="236.7"/>
			<line class="st0" x1="0" y1="254.7" x2="100" y2="254.7"/>
			<line class="st0" x1="0" y1="272.7" x2="100" y2="272.7"/>
			<line class="st1" x1="32.6" y1="74.2" x2="67.1" y2="74.2"/>
			<line class="st1" x1="32.6" y1="92.2" x2="67.1" y2="92.2"/>
			<line class="st1" x1="32.6" y1="110.2" x2="67.1" y2="110.2"/>
			<line class="st1" x1="32.6" y1="128.2" x2="67.1" y2="128.2"/>
			<line class="st1" x1="32.6" y1="146.2" x2="67.1" y2="146.2"/>
			<line class="st1" x1="32.6" y1="164.2" x2="67.1" y2="164.2"/>
			<line class="st1" x1="32.6" y1="182.2" x2="67.1" y2="182.2"/>
			<line class="st2" x1="39.2" y1="68.6" x2="39.2" y2="236.2"/>
			<path d="M53.8,55.3c2.2,0,4.1,0.6,5.7,1.8c1.5,1.3,2.2,2.9,2.2,4.8c0,3.2-1.7,6.3-5,9.1c-3.4,2.8-7,4.2-10.8,4.2
				c-2.2,0-4.2-0.6-5.7-1.8c-1.5-1.3-2.2-2.9-2.2-4.8c0-3.2,1.7-6.3,5.1-9.1C46.3,56.7,49.9,55.3,53.8,55.3"/>
			<path d="M54.4,184.1c1.1,0,2.2,1.8,3.4,5.3s1.8,6.8,1.8,9.9c0,2.7-0.7,5.3-2,7.9c-1.4,2.8-3,5.2-4.8,7.3L47,221
				c-1.8,2.1-3.4,4.5-4.8,7.2c-1.3,2.6-2,5.3-2,8H38v-18h2.2c1.3-0.8,3.1-2.1,5.6-3.8c1.1-0.8,2.8-2.2,5.1-4.2c1.8-1.7,3.2-3.4,4.1-5.2
				c1-1.9,1.5-3.8,1.5-5.7c0-4.5-1.3-8.9-3.9-13.3c0,0,0-0.1,0-0.3c0-0.4,0.1-0.8,0.4-1.1C53.5,184.3,53.9,184.1,54.4,184.1"/>
		</symbol>
	</defs>
</svg>
